<svg xmlns="http://www.w3.org/2000/svg" width="650" height="550" fill="none"><g clip-path="url(#a)"><g opacity=".4"><path opacity=".4" d="M38.677 106.363c5.896 0 10.676-4.782 10.676-10.681 0-5.9-4.78-10.682-10.676-10.682C32.78 85 28 89.782 28 95.682c0 5.899 4.78 10.681 10.677 10.681Z" fill="#262F63"/><path d="M40.203 93.443c-.308-.669-.814-1.07-1.566-1.185a4.21 4.21 0 0 0-.6-.034c-.793-.005-1.581 0-2.374-.005-.376 0-.663-.263-.663-.602-.005-.35.282-.617.668-.617h6.664c.386 0 .668.268.668.617-.005.334-.287.597-.663.602-.433.005-.871 0-1.289 0 .199.402.397.794.61 1.224h.653c.402.005.689.263.689.617-.005.344-.292.598-.684.603h-.689c-.652 1.989-2.196 2.62-4.357 2.42.1.1.146.147.198.195 1.315 1.205 2.63 2.41 3.946 3.62.313.287.339.636.083.899a.706.706 0 0 1-.918.062c-.047-.038-.094-.076-.136-.12-1.722-1.577-3.45-3.155-5.166-4.743a.859.859 0 0 1-.261-.416c-.079-.368.24-.693.652-.693.856-.005 1.706 0 2.562 0 .778-.005 1.394-.287 1.811-.904.042-.057.068-.124.105-.186.015-.034.03-.072.052-.13h-4.53c-.329 0-.61-.22-.657-.506-.053-.311.146-.603.48-.689.083-.024.177-.024.266-.024h4.185c.073-.005.146-.005.26-.005Z" fill="#fff"/><path opacity=".4" d="M328.506 58.027c8.564 0 15.506-6.946 15.506-15.513 0-8.568-6.942-15.514-15.506-15.514S313 33.946 313 42.514c0 8.567 6.942 15.513 15.506 15.513Z" fill="url(#b)"/><path d="M330.804 38.776c-.461-1.034-1.221-1.655-2.348-1.833a6.133 6.133 0 0 0-.9-.051c-1.19-.008-2.372 0-3.562-.008-.563 0-.994-.406-.994-.93-.008-.54.423-.954 1.002-.954h9.996c.579 0 1.002.414 1.002.953-.008.518-.431.924-.994.931-.65.008-1.307 0-1.934 0 .298.621.595 1.227.916 1.892h.979c.602.008 1.033.407 1.033.953-.008.532-.438.924-1.025.932h-1.034c-.978 3.074-3.295 4.05-6.536 3.739.149.155.219.229.298.303 1.972 1.862 3.945 3.724 5.917 5.594.47.443.509.983.126 1.39a1.035 1.035 0 0 1-1.378.095 2.328 2.328 0 0 1-.204-.185c-2.583-2.438-5.174-4.877-7.749-7.33-.18-.17-.344-.414-.391-.643-.118-.57.36-1.072.978-1.072 1.284-.007 2.56 0 3.843 0 1.167-.007 2.09-.443 2.717-1.396.062-.089.101-.192.156-.288a2.46 2.46 0 0 0 .079-.2h-6.795c-.493 0-.916-.34-.986-.783-.079-.48.219-.931.72-1.064.125-.037.266-.037.399-.037h6.278c.11-.008.219-.008.391-.008Z" fill="#fff"/><path opacity=".4" d="M589.492 339.013c16.84 0 30.492-13.658 30.492-30.507 0-16.848-13.652-30.506-30.492-30.506-16.84 0-30.492 13.658-30.492 30.506 0 16.849 13.652 30.507 30.492 30.507Z" fill="url(#c)"/><path d="M593.21 298.885c-1.077-2.434-2.849-3.895-5.479-4.312-.694-.104-1.407-.122-2.101-.122-2.776-.017-5.534 0-8.31-.017-1.315 0-2.32-.956-2.32-2.191-.018-1.269.987-2.243 2.338-2.243h23.324c1.352 0 2.338.974 2.338 2.243-.018 1.217-1.005 2.173-2.32 2.191-1.516.017-3.05 0-4.511 0 .694 1.46 1.388 2.886 2.137 4.451h2.283c1.406.017 2.411.956 2.411 2.243-.018 1.252-1.023 2.174-2.393 2.191h-2.411c-2.283 7.233-7.689 9.528-15.251 8.798.347.365.512.539.694.713 4.603 4.382 9.206 8.763 13.809 13.162 1.095 1.044 1.187 2.313.292 3.269a2.4 2.4 0 0 1-3.215.226c-.164-.139-.329-.278-.475-.434-6.027-5.738-12.073-11.476-18.082-17.249-.42-.4-.803-.974-.913-1.513-.274-1.338.84-2.521 2.283-2.521 2.996-.017 5.973 0 8.968 0 2.722-.017 4.877-1.043 6.338-3.286.146-.209.237-.452.365-.678.055-.122.11-.261.183-.47h-15.854c-1.151 0-2.137-.799-2.301-1.843-.183-1.13.511-2.191 1.68-2.504.292-.087.621-.087.932-.087h14.648c.256-.017.511-.017.913-.017Z" fill="#fff"/><path d="M392.104 108.663H407.51a2.236 2.236 0 0 0 2.215-2.215 2.236 2.236 0 0 0-2.215-2.216H392.104a2.236 2.236 0 0 0-2.215 2.216 2.236 2.236 0 0 0 2.215 2.215Z" fill="#E0E7FC"/></g><rect x="64" y="49" width="521" height="285" rx="4" fill="#262F63"/><path fill="url(#d)" d="M68 54h513v274H68z"/><path stroke="#262F63" d="M110.5 93v202M533 295.5H111"/><path opacity=".2" d="M313.428 509.317c150.802 17.172 292.933 0 295.572-37.164C609 457.709 483.757 446 329.262 446S45 457.709 45 472.153c0 14.443 139.492 22.481 268.428 37.164Z" fill="#000"/><path d="m131.543 219.104 89.715 51.759 174.253-129.396 44.857 27.604 65.561-56.934" stroke="#5982BE" stroke-width="6"/><circle cx="218.053" cy="268.925" r="6.338" fill="#5B84C0"/><circle cx="394.031" cy="140.394" r="6.338" fill="#262F63"/><circle cx="438.891" cy="167.997" r="6.338" fill="#262F63"/><circle cx="507.899" cy="109.338" r="6.338" fill="#262F63"/><circle cx="128.338" cy="217.164" r="6.338" fill="#262F63"/><path stroke="#fff" d="M57.48 386.342h10.308v71.693H57.48zM75.25 413.805h10.308v44.231H75.25zM93.019 375.034h10.308v83.001H93.019zM110.787 357.265h10.308v100.77h-10.308z"/><path opacity=".2" fill-rule="evenodd" clip-rule="evenodd" d="M581.994 114.143c-1.75.191-3.527.288-5.327.288-26.878 0-48.667-21.789-48.667-48.667A48.586 48.586 0 0 1 530.964 49h32.04c10.488 0 18.99 8.502 18.99 18.99v46.153Z" fill="#2D26CF"/><path opacity=".1" d="M557.597 122.967c27.448 0 49.699-22.261 49.699-49.722 0-27.461-22.251-49.723-49.699-49.723-27.448 0-49.699 22.262-49.699 49.723s22.251 49.722 49.699 49.722Z" fill="#000"/><path d="M563.699 115.445c27.448 0 49.699-22.262 49.699-49.723 0-27.46-22.251-49.722-49.699-49.722C536.251 16 514 38.261 514 65.722c0 27.461 22.251 49.723 49.699 49.723Z" fill="#fff"/><path d="M569.413 52.328c-1.385-3.103-3.663-4.965-7.045-5.498-.892-.133-1.808-.155-2.7-.155-3.57-.022-7.116 0-10.685-.022-1.691 0-2.983-1.22-2.983-2.793-.023-1.618 1.268-2.86 3.006-2.86h29.988c1.738 0 3.006 1.242 3.006 2.86-.023 1.552-1.292 2.771-2.982 2.793-1.949.022-3.922 0-5.801 0 .893 1.862 1.785 3.68 2.748 5.675h2.935c1.808.023 3.1 1.22 3.1 2.86-.023 1.596-1.315 2.771-3.076 2.794h-3.1c-2.935 9.222-9.886 12.148-19.609 11.217.447.466.658.688.893.91 5.918 5.586 11.835 11.173 17.753 16.781 1.409 1.33 1.527 2.949.376 4.168a3.105 3.105 0 0 1-4.133.288 6.97 6.97 0 0 1-.611-.554c-7.749-7.316-15.522-14.632-23.248-21.992-.54-.51-1.033-1.241-1.174-1.928-.352-1.707 1.08-3.215 2.935-3.215 3.851-.022 7.679 0 11.53 0 3.499-.022 6.27-1.33 8.149-4.19.188-.266.305-.576.47-.865.07-.155.141-.332.235-.598h-20.384c-1.479 0-2.747-1.02-2.959-2.35-.235-1.441.658-2.793 2.161-3.193.375-.11.798-.11 1.197-.11h18.834c.329-.023.657-.023 1.174-.023Z" fill="#71BEB5"/><path d="M623.291 66.302c0 26.24-21.271 47.512-47.512 47.512-26.24 0-47.511-21.272-47.511-47.512 0-26.24 21.271-47.512 47.511-47.512 26.241 0 47.512 21.272 47.512 47.512Z" stroke="#fff" stroke-width="1.223"/><rect x="339" y="416" width="89" height="15" rx="3" fill="url(#e)"/><rect x="455" y="416" width="89" height="15" rx="3" fill="url(#f)"/><rect x="442" y="386" width="89" height="15" rx="3" fill="url(#g)"/><rect x="334" y="431" width="89" height="15" rx="3" fill="url(#h)"/><rect x="450" y="431" width="89" height="15" rx="3" fill="url(#i)"/><rect x="437" y="401" width="89" height="15" rx="3" fill="url(#j)"/><rect x="339" y="446" width="89" height="15" rx="3" fill="url(#k)"/><rect x="455" y="446" width="89" height="15" rx="3" fill="url(#l)"/><path fill-rule="evenodd" clip-rule="evenodd" d="m546.588 331.75-70.678 30.973 3.605 8.225h.001l.001.002c1.548 3.533 18.625-.536 38.142-9.089 19.517-8.553 34.084-18.351 32.535-21.884-.007-.018-.016-.036-.024-.053l-3.582-8.174Z" fill="#E8A341"/><ellipse cx="511.254" cy="347.236" rx="38.583" ry="6.985" transform="rotate(-23.665 511.254 347.236)" fill="#F3BF75"/><ellipse cx="511.252" cy="347.236" rx="33.261" ry="5.987" transform="rotate(-23.665 511.252 347.236)" fill="#E8A341"/><ellipse cx="511.657" cy="348.15" rx="31.931" ry="4.989" transform="rotate(-23.665 511.657 348.15)" fill="#F3BF75"/><path fill-rule="evenodd" clip-rule="evenodd" d="m496.061 348.484-64.204-42.808-4.982 7.472h.001l-.001.002c-2.14 3.209 10.497 15.394 28.227 27.215 17.729 11.821 33.836 18.802 35.976 15.593a1.11 1.11 0 0 0 .017-.026l4.966-7.448Z" fill="#E8A341"/><ellipse cx="463.961" cy="327.081" rx="38.583" ry="6.985" transform="rotate(33.694 463.961 327.081)" fill="#F3BF75"/><ellipse cx="463.964" cy="327.081" rx="33.261" ry="5.987" transform="rotate(33.694 463.964 327.081)" fill="#E8A341"/><ellipse cx="463.411" cy="327.913" rx="31.931" ry="4.989" transform="rotate(33.694 463.411 327.913)" fill="#F3BF75"/><path fill-rule="evenodd" clip-rule="evenodd" d="M458.105 264.653a2.716 2.716 0 0 1-.553-.476c-3.612-4.104 6.227-18.671 21.976-32.536 15.678-13.802 31.303-21.707 35.008-17.731l.101-.091 8.535 9.658-57.057 50.147-8.075-8.912.065-.059Z" fill="#F3BF75"/><ellipse cx="494.293" cy="248.291" rx="37.994" ry="9.899" transform="rotate(-41.36 494.293 248.291)" fill="#E8A341"/><path d="M358.55 461.396s-11.704 4.934-38.015 7.009c-14.403 1.122-33.188 1.379-56.829-.518-66.822 5.365-94.845-6.491-94.845-6.491-51.828-52.923 8.638-166.315 30.234-193.323 9.982-12.476 24.569-17.57 37.376-19.447a96.539 96.539 0 0 1 27.235-.024 96.567 96.567 0 0 1 27.239.024c6.81.996 14.128 2.902 20.981 6.356a48.618 48.618 0 0 1 16.386 13.091c21.6 27.008 82.067 140.4 30.238 193.323Z" fill="url(#m)"/><path d="M315.175 181.765s-5.363-25.667-49.733-3.356c-44.369 22.311 39.684 17.258 39.684 17.258s10.595-6.409 10.049-13.902Z" fill="#4FA39A"/><path d="M228.337 222.118s-29.747-32.907-13.514-47.507c12.734-11.441 49.592 3.387 64.905 10.293a51.135 51.135 0 0 0 21.027 4.626c7.135 0 14.304-1.418 14.44-7.089 0 0 .485 25.063-18.017 39.682-18.502 14.62-68.841-.005-68.841-.005Z" fill="url(#n)"/><path d="M262.586 227.651s22.266-7.555 29.103-22.538c0 0-.274 14.437-10.939 20.157-10.665 5.72-18.164 2.381-18.164 2.381Z" fill="#4FA39A"/><path d="M297.606 221.903h-68.92c-3.533 0-6.397 2.792-6.397 6.236v.961c0 3.444 2.864 6.236 6.397 6.236h68.92c3.532 0 6.396-2.792 6.396-6.236v-.961c0-3.444-2.864-6.236-6.396-6.236Z" fill="#262F63"/><path d="M206.619 452.491s60.21 32.741 114.174 0c0 0-56.648 9.877-114.174 0ZM229.006 196.158s4.029 22.394 20.148 25.745c0 0-17.727-15.82-20.148-25.745ZM179.402 358.465s-7.407 44.255 23.861 55.968c0 0-25.507-31.785-23.861-55.968Z" fill="#4FA39A"/><path opacity=".34" d="M258.669 366.3c21.946 0 39.737-17.79 39.737-39.737 0-21.946-17.791-39.737-39.737-39.737s-39.737 17.791-39.737 39.737c0 21.947 17.791 39.737 39.737 39.737Z" fill="#0A0A0A"/><path d="M297.608 235.336h-68.925c-3.531 0-6.394 2.756-6.394 6.156 0 3.401 2.863 6.157 6.394 6.157h68.925c3.531 0 6.394-2.756 6.394-6.157 0-3.4-2.863-6.156-6.394-6.156Z" fill="#262F63"/><path d="M263.297 361.594c22.255 0 40.297-18.042 40.297-40.297 0-22.256-18.042-40.297-40.297-40.297C241.041 281 223 299.041 223 321.297c0 22.255 18.041 40.297 40.297 40.297Z" fill="#EBF2FC"/><path d="M269.413 308.329c-1.385-3.104-3.663-4.966-7.045-5.498-.892-.133-1.808-.156-2.7-.156-3.57-.022-7.116 0-10.685-.022-1.691 0-2.983-1.219-2.983-2.793-.023-1.619 1.268-2.86 3.006-2.86h29.988c1.738 0 3.006 1.241 3.006 2.86-.023 1.552-1.292 2.771-2.982 2.793-1.949.022-3.922 0-5.801 0 .893 1.862 1.785 3.68 2.748 5.676h2.935c1.808.022 3.1 1.219 3.1 2.859-.023 1.597-1.315 2.771-3.076 2.794h-3.1c-2.935 9.222-9.886 12.148-19.609 11.217.447.466.658.688.893.909 5.918 5.587 11.835 11.174 17.753 16.782 1.409 1.331 1.527 2.949.376 4.168a3.104 3.104 0 0 1-4.133.288 6.844 6.844 0 0 1-.611-.554c-7.749-7.316-15.522-14.632-23.248-21.992-.54-.51-1.033-1.241-1.174-1.928-.352-1.707 1.08-3.215 2.935-3.215 3.851-.022 7.679 0 11.53 0 3.499-.022 6.27-1.33 8.149-4.19.188-.266.305-.576.47-.865a7.41 7.41 0 0 0 .235-.598h-20.384c-1.479 0-2.747-1.02-2.959-2.35-.235-1.441.658-2.793 2.161-3.192.375-.111.798-.111 1.197-.111h18.834c.329-.022.657-.022 1.174-.022Z" fill="#262F63"/></g><defs><linearGradient id="b" x1="313" y1="42.514" x2="344.012" y2="42.514" gradientUnits="userSpaceOnUse"><stop stop-color="#514975"/><stop offset=".98" stop-color="#6C6491"/></linearGradient><linearGradient id="c" x1="559.006" y1="308.506" x2="619.984" y2="308.506" gradientUnits="userSpaceOnUse"><stop stop-color="#514975"/><stop offset=".98" stop-color="#6C6491"/></linearGradient><linearGradient id="d" x1="325" y1="67" x2="324.5" y2="328" gradientUnits="userSpaceOnUse"><stop stop-color="#F3FAFC"/><stop offset="1" stop-color="#DDE5FC"/></linearGradient><linearGradient id="e" x1="393.769" y1="433" x2="394.711" y2="415.373" gradientUnits="userSpaceOnUse"><stop stop-color="#E8A341"/><stop offset=".98" stop-color="#F3BF75"/></linearGradient><linearGradient id="f" x1="509.769" y1="433" x2="510.711" y2="415.373" gradientUnits="userSpaceOnUse"><stop stop-color="#E8A341"/><stop offset=".98" stop-color="#F3BF75"/></linearGradient><linearGradient id="g" x1="496.769" y1="403" x2="497.711" y2="385.373" gradientUnits="userSpaceOnUse"><stop stop-color="#E8A341"/><stop offset=".98" stop-color="#F3BF75"/></linearGradient><linearGradient id="h" x1="388.769" y1="448" x2="389.711" y2="430.373" gradientUnits="userSpaceOnUse"><stop stop-color="#E8A341"/><stop offset=".98" stop-color="#F3BF75"/></linearGradient><linearGradient id="i" x1="504.769" y1="448" x2="505.711" y2="430.373" gradientUnits="userSpaceOnUse"><stop stop-color="#E8A341"/><stop offset=".98" stop-color="#F3BF75"/></linearGradient><linearGradient id="j" x1="491.769" y1="418" x2="492.711" y2="400.373" gradientUnits="userSpaceOnUse"><stop stop-color="#E8A341"/><stop offset=".98" stop-color="#F3BF75"/></linearGradient><linearGradient id="k" x1="393.769" y1="463" x2="394.711" y2="445.373" gradientUnits="userSpaceOnUse"><stop stop-color="#E8A341"/><stop offset=".98" stop-color="#F3BF75"/></linearGradient><linearGradient id="l" x1="509.769" y1="463" x2="510.711" y2="445.373" gradientUnits="userSpaceOnUse"><stop stop-color="#E8A341"/><stop offset=".98" stop-color="#F3BF75"/></linearGradient><linearGradient id="m" x1="263.545" y1="444.219" x2="263.545" y2="265.635" gradientUnits="userSpaceOnUse"><stop stop-color="#74C0B8"/><stop offset="1" stop-color="#4EA399"/></linearGradient><linearGradient id="n" x1="262.513" y1="222.038" x2="262.513" y2="175.137" gradientUnits="userSpaceOnUse"><stop stop-color="#74C0B8"/><stop offset="1" stop-color="#4EA399"/></linearGradient><clipPath id="a"><path fill="#fff" d="M0 0h650v550H0z"/></clipPath></defs></svg>