<svg xmlns="http://www.w3.org/2000/svg" width="179.798" height="29.263"><path d="M15.317.549h16.834a1.111 1.111 0 0 1-.221.615c-.57.977-1.083 1.994-1.643 2.972-.792 1.4-1.533 2.832-2.338 4.23-.51 1.006-1.086 1.98-1.63 2.969h-9.812c-.171 0-.34.009-.511.019a9.022 9.022 0 0 1-.57 1.058c-.249.4-.452.836-.7 1.241-.261.544-.621 1.031-.883 1.574-.541.919-1.047 1.852-1.577 2.781q-.829 1.425-1.621 2.889a12.251 12.251 0 0 0-.617 1.07c-1.107 1.926-2.178 3.869-3.287 5.794a2.325 2.325 0 0 1-.368.57c-1.895-.013-3.789 0-5.684 0a2.908 2.908 0 0 0-.691.1 3.056 3.056 0 0 1 .587-1.385c.285-.591.665-1.14.952-1.732 2.271-4.063 4.517-8.14 6.781-12.206.513-.883.953-1.785 1.469-2.651.644-1.14 1.244-2.305 1.915-3.432.214-.472.5-.9.737-1.363.835-1.486 1.654-2.98 2.486-4.466a2.6 2.6 0 0 1 .392-.643Z" fill="#ced0d4"/><g fill="#ced0d4"><path d="M34.824 6.53c1.121-1.959 2.2-3.939 3.341-5.889h6.08a1.256 1.256 0 0 1 .262.041c-.2.306-.372.631-.55.95q-2.2 3.948-4.386 7.9c-.613 1.073-1.182 2.17-1.8 3.237l-.061.021-.011.134q-4.288 7.693-8.548 15.4-8.372.009-16.746 0c.318-.664.694-1.3 1.047-1.943 1.59-2.923 3.221-5.821 4.788-8.744q5.144-.009 10.289 0c2.118-3.69 4.191-7.408 6.294-11.1ZM97.574.566v28.093h4.868V8.904l8.88 13.011 8.808-13.319v20.063h5.01V.566h-5.389l-8.394 12.968L102.869.566ZM74.804 7.811h3.181v21.084h-3.181ZM74.53 0h3.728v3.537H74.53ZM84.064 1.769h3.324v6.042h6.553v2.945h-6.553v12.525a2.97 2.97 0 0 0 .326 1.389c.563 1.068 2.091 2.336 6.227.855v2.73s-3.775 2.137-7.194.191a4.868 4.868 0 0 1-2.412-3.154 7.1 7.1 0 0 1-.271-2V10.708l-2.8.047V7.811h2.825ZM130.269.566v28.283H151.4V24.29h-15.978v-7.5h14.08v-4.494h-14.1V5.153h15.838V.566ZM153.383.566h6.019l6.909 9.93 6.855-9.93h6.019l-9.83 13.793 10.442 14.466h-6.339l-7.119-10.565-7.468 10.589h-6.019l10.287-14.364ZM65.068 14.175a7.019 7.019 0 0 0 4.369-6.814A6.988 6.988 0 0 0 63.922.996 10.542 10.542 0 0 0 61.13.637H47.997l.036 28.093h14.139s8.274-.178 8.857-7.55c0 0 .592-5.153-5.961-7.005ZM51.387 3.537h8.382c6.576-.023 6.387 4.607 6.387 4.607.1 5.282-5.936 5.176-5.936 5.176h-8.833Zm10.257 22.224H51.387V15.98h9.807c6.576-.024 6.387 4.606 6.387 4.606.106 5.282-5.932 5.175-5.932 5.175Z"/></g></svg>