<svg xmlns="http://www.w3.org/2000/svg" width="209.979" height="54.469"><path d="M5.827 39.922H0V3.375L5.827.054v16.133a10.624 10.624 0 0 1 7.787-3.073c7.893 0 13.137 5.3 13.137 13.563S21.507 40.24 13.614 40.24a10.993 10.993 0 0 1-7.787-3.073v2.755Zm-.106-13.245c0 4.556 3.019 7.947 7.628 7.947s7.681-3.391 7.681-7.947-3.072-7.947-7.681-7.947-7.628 3.39-7.628 7.947Zm26 13.245v-26.49h5.827v26.49ZM30.719 6.491a3.92 3.92 0 1 1 7.84 0 3.92 3.92 0 1 1-7.84 0Zm14.1 21.881v-25L50.756 0v13.432h5.933v5.616h-5.933v9.325a5.993 5.993 0 0 0 5.933 5.934v5.933a11.881 11.881 0 0 1-11.866-11.868ZM62.6 13.432h5.827v2.755a10.992 10.992 0 0 1 7.787-3.073c7.893 0 13.137 5.3 13.137 13.563S84.1 40.24 76.212 40.24a10.624 10.624 0 0 1-7.787-3.073v13.9L62.6 54.469Zm5.721 13.245c0 4.556 3.019 7.947 7.628 7.947s7.681-3.391 7.681-7.947-3.073-7.947-7.681-7.947-7.63 3.39-7.63 7.947Zm45.139-13.245h5.933v26.49h-5.933v-2.755c-1.112 1.43-4.026 3.073-7.575 3.073-7.575 0-13.3-5.616-13.3-13.563s5.721-13.563 13.3-13.563c3.5 0 6.463 1.642 7.575 3.073v-2.755Zm.212 13.245a7.727 7.727 0 0 0-7.575-7.947 7.949 7.949 0 0 0 0 15.894 7.727 7.727 0 0 0 7.572-7.947Zm11.887 13.245v-26.49h5.827v3.02a8.936 8.936 0 0 1 7.257-3.338c6.569 0 10.171 3.868 10.171 10.914v15.894h-5.827V25.3c0-4.662-1.96-6.675-5.774-6.675s-5.827 2.755-5.827 6.675v14.622Zm53.567 0H173.3v-2.755a10.991 10.991 0 0 1-7.787 3.073c-7.893 0-13.137-5.3-13.137-13.563s5.244-13.563 13.137-13.563a10.623 10.623 0 0 1 7.787 3.073V3.375l5.823-3.341ZM173.4 26.677c0-4.556-3.019-7.947-7.628-7.947s-7.681 3.391-7.681 7.947 3.072 7.947 7.681 7.947 7.628-3.391 7.628-7.947Zm30.643-13.245h5.933v26.49h-5.933v-2.755c-1.113 1.43-4.026 3.073-7.575 3.073-7.575 0-13.3-5.616-13.3-13.563s5.721-13.563 13.3-13.563c3.5 0 6.463 1.642 7.575 3.073v-2.755Zm.212 13.245a7.727 7.727 0 0 0-7.575-7.947 7.949 7.949 0 0 0 0 15.894 7.727 7.727 0 0 0 7.578-7.947Z" fill="#ced0d4" fill-rule="evenodd"/></svg>