<svg xmlns="http://www.w3.org/2000/svg" width="138.689" height="40.03"><g fill="#ced0d4"><path d="M47.722 8.441a.386.386 0 0 1 .359-.36h9.921c5.56 0 8.1 2.732 8.1 6.83a6.021 6.021 0 0 1-2.924 5.464v.1a5.927 5.927 0 0 1 3.379 5.727c0 5.008-3.379 7.381-8.819 7.381h-9.657a.386.386 0 0 1-.359-.359Zm9.633 10.017c2.085 0 3.379-1.1 3.379-3 0-1.917-1.27-2.924-3.379-2.924h-3.906c-.192 0-.192.1-.192.192v5.464c0 .192.1.192.192.192h3.906Zm-3.906 10.544h4.194c2.277 0 3.451-1.174 3.451-3.187 0-1.917-1.174-3.187-3.451-3.187h-4.194c-.192 0-.192.1-.192.192v5.919c-.1.192 0 .264.192.264M69.002 8.345a.386.386 0 0 1 .359-.359h4.721a.386.386 0 0 1 .359.359V33.1a.386.386 0 0 1-.359.359h-4.72a.386.386 0 0 1-.359-.359ZM84.196 33.458a.386.386 0 0 1-.359-.359V13.158c0-.192-.1-.192-.192-.192h-6.47a.386.386 0 0 1-.359-.359V8.413a.386.386 0 0 1 .359-.359h18.84a.386.386 0 0 1 .359.359v4.194a.386.386 0 0 1-.359.359h-6.47c-.192 0-.192.1-.192.192v19.938a.386.386 0 0 1-.359.359ZM96.948 30.465c-.192-.192-.192-.359-.1-.647l2.828-3.283a.336.336 0 0 1 .551 0 10.879 10.879 0 0 0 6.638 2.636c2.636 0 4.194-1.27 4.194-3 0-1.462-.911-2.468-3.906-2.828l-1.366-.192c-5.176-.719-8-3.187-8-7.644 0-4.721 3.547-7.836 9.01-7.836a14.6 14.6 0 0 1 8.651 2.636c.192.192.264.264.1.551l-2.277 3.379a.42.42 0 0 1-.551.1 10.413 10.413 0 0 0-5.919-1.917c-2.277 0-3.379 1.174-3.379 2.732 0 1.462 1.1 2.372 4 2.828l1.366.192c5.272.719 8 3.091 8 7.74s-3.379 8-10.017 8a15 15 0 0 1-9.825-3.451M119.422 27.733c-.551-1.725-.719-3.187-.719-6.926s.192-5.176.719-6.926c1.27-4.1 4.817-6.183 9.274-6.183s8 2.085 9.274 6.183c.551 1.725.719 3.187.719 6.926s-.192 5.176-.719 6.926c-1.27 4.1-4.817 6.183-9.274 6.183s-7.908-2.085-9.274-6.183m13.276-1.462a41.707 41.707 0 0 0 0-10.927 4.246 4.246 0 0 0-8 0 41.693 41.693 0 0 0 0 10.927 4.246 4.246 0 0 0 8 0M19.566.939a16.934 16.934 0 0 0-4.493.551.378.378 0 0 0-.388.225 1.315 1.315 0 0 0-.163.388v11.56a.559.559 0 0 0 .082.306c.082.082.225.082.388-.082a7.833 7.833 0 0 1 4.575-1.47 7.984 7.984 0 0 1 7.986 7.986v17.38s0 .163.082.225c.082.082.163.082.306 0A19.438 19.438 0 0 0 19.566.939"/><path d="M24.529 26.837c-.082-.082-.163-.082-.306 0a8.109 8.109 0 0 1-4.657 1.552A7.984 7.984 0 0 1 11.58 20.4V.551a1.081 1.081 0 0 0-.163-.47.815.815 0 0 0-.388-.082H.629a.671.671 0 0 0-.47.163.633.633 0 0 0-.163.47v19.852A19.559 19.559 0 0 0 19.545 40.03a18.631 18.631 0 0 0 4.657-.551 1.483 1.483 0 0 0 .306-.225.808.808 0 0 0 .163-.47V27.143c-.061 0-.061-.225-.143-.306"/></g></svg>