<svg xmlns="http://www.w3.org/2000/svg" width="253" height="157"><path fill="none" stroke="#09be8b" stroke-width="1.5" d="M5.5 64.5v92M19.5 22.492V156.5M46 46.931v67"/><path fill="none" stroke="#b73f43" stroke-width="1.5" d="M33 80.586v40"/><path fill="none" stroke="#b73f43" stroke-width="2" d="M91.342 81.351v52"/><path fill="none" stroke="#b73f43" stroke-width="1.5" d="M118.957 90.406v40M161 79v40M204 92v24M133 96v29"/><path fill="none" stroke="#09be8b" stroke-width="1.5" d="M147.634 41.5v107M175.249 25.795v108M190.119 6.492v112M220.545 77.708v29"/><path fill="none" stroke="#b73f43" stroke-width="1.5" d="M233.545 22.492V156.5"/><path fill="none" stroke="#09be8b" stroke-width="1.5" d="M248 0v137"/><path fill="none" stroke="#b73f43" stroke-width="2" d="M105.149 97.682v22"/><path fill="none" stroke="#b73f43" stroke-width="1.5" d="M77.534 92.597v40M62 107v21"/><path fill="#09be8b" d="M0 81h11v53H0zM14 37h10v78H14z"/><path fill="#fb4e4e" d="M28 92h10v29H28zM57 94h10v27H57zM86 92h10v27H86zM113 105h10v19h-10zM128 102h10v14h-10zM156 87h10v40h-10zM199 82h10v27h-10zM100 85h10v27h-10zM73 106h10v51H73z"/><path fill="#09be8b" d="M44 61h10v52H44zM143 68h10v52h-10zM171 47h10v51h-10zM185 23h10v73h-10z"/><path fill="#fb4e4e" d="M229 37h10v76h-10z"/><path fill="#09be8b" d="M243 9h10v76h-10z"/><path fill="#09be8b" d="M243 9h10v126h-10zM216 84h10v14h-10z"/></svg>