<svg version="1.2" xmlns="http://www.w3.org/2000/svg" viewBox="0 0 2800 2141" width="512" height="391"><defs><clipPath clipPathUnits="userSpaceOnUse" id="cp1"><path d="M0-327h2799.93v2799.93H0z"/></clipPath><clipPath clipPathUnits="userSpaceOnUse" id="cp2"><path d="M38.22 28.94h2723.35v2084.69H38.22z"/></clipPath></defs><style>.s0{fill:#193770}.s3{fill:#e9edf5}.s4{fill:#3069d7}.s5{fill:#11264e}.s6{fill:#96b7f5}.s7{fill:#fac27c}</style><g clip-path="url(#cp1)" id="Layer"><g clip-path="url(#cp2)" id="Clip-Path"><path class="s0" d="M2756.5 1012.3c2.6.1 4.7 2.5 4.6 5.1-.1 2.7-2.4 4.7-5.1 4.7q-.3-.1-.7-.1c1.2 1.6 1.3 3.8.2 5.6-12 19.3-25.2 37.9-38.3 56.5-14.7 21-29.7 41.7-44.5 62.6-7.7 11-15.4 22-22.8 33.1-6.8 10.3-13.6 20.5-20.5 30.7-14.1 20.8-28.4 41.5-43 62q-10.2 14.4-20.2 28.8c-8 11.6-15.8 23.3-23.7 35-7.4 10.8-14.7 21.6-22.1 32.3-7.6 10.8-15.3 21.7-22.9 32.5-7.7 10.8-15.2 21.7-22.7 32.6-7.3 10.5-14.3 21.2-21.4 31.8-7.5 11.1-14.9 22.3-22.5 33.3-7.7 11.3-15.5 22.6-23.2 33.9-7.5 11-15 22.1-22.7 33-7.7 11-15.6 22-23.4 33-8.2 11.4-16.3 22.8-24.4 34.2q-12.3 17.5-24.2 35.2c-7.9 11.8-16.1 23.3-24.3 34.8-3.9 5.4-7.8 10.8-11.8 16.1-2.8 3.8-5.7 7.3-8.6 11-.7 1.3-2.1 2.2-3.6 2.5q-.2.1-.3.2c-1 .7-2.1 1-3.1.9h-.1q-3.1.1-6.2.1c-6.8 0-13.5-.2-20.2-.3q-15.1-.3-30.1-.3c-11.8 0-23.6.2-35.3.4H2166.6q-1.4.1-2.8.1h-2.2q-.3.1-.5.1l-21.7.4h.1q-1 0-1.9.1-14.9.2-29.8.2-1.1.3-2.2.7-.2 0-.5.1c-.9.3-1.8.6-2.7.8-5.7 1.8-11.4 3.8-17.1 5.8-16.2 5.9-32.5 12-48.5 18.4-9.1 3.6-18.1 7.3-27.1 11-9.2 3.7-18.4 7.5-27.7 10.8-12.7 4.5-25.7 8.4-39 10.5q-.8.1-1.7.2-.3.1-.6.1c-5.6.9-11.2 1.4-16.8 1.4-4.9 0-9.8-.4-14.6-1.2-10.6-1.8-20.7-5.6-30-10.9-13.1-7.5-24.7-17.3-36.7-26.3-7.1-5.3-14.3-10.2-22-14.6-5.3-2.9-10.7-5.4-16.2-7.7-6.9-2.7-13.8-4.8-20.9-6.7-10.4-2.6-21.1-4.5-31.7-5.7q-.2-.1-.4-.1h-.5c-9.9-1.1-19.9-1.7-29.8-2.2-9.8-.4-19.6-.8-29.3-1.7-6.7-.6-13.4-1.3-20-2.4-3.4-.6-6.7-1.3-10-2.2-2.5-.7-5-1.8-7.5-2.6-1.3-.1-2.5-.7-3.3-1.8-2.7-.6-5.3-1.5-7.5-3.2q-.8-.6-1.4-1.3l-4.4 6.6c-2.1 3.3-4.3 6.5-6.3 9.9q0 .1-.1.3c-.8 1.8-2.6 3-4.5 3h-.9c-2.6-.5-4.4-3.1-3.9-5.7.2-1 .6-1.8 1.2-2.7q.9-1.5 1.8-2.9 2.5-4.1 5.2-8.2c3.7-5.7 7.6-11.3 11.4-17 7.9-11.7 15.7-23.6 23.5-35.4 15.9-24.1 32.2-47.9 48.5-71.6q25.3-36.9 51.1-73.5c16.8-23.8 33.6-47.4 50.3-71.2 17.1-24.3 34.1-48.7 51.4-72.8 13-18.2 26.1-36.2 39.5-54l.2-.4.1-.1c.5-.7 1-1.5 1.6-2.1q.3-.5.7-1 1.3-1.7 2.5-3.4-.1.3-.3.5.2-.2.3-.4 1.1-1.5 2.3-3c.1-.2.2-.4.4-.6l.1-.1q2.4-3.3 4.9-6.6l2.8-3.8c1.7-2.3 3.5-4.7 5.3-7q.1-.1.1-.3h.1c.4-.6.9-1.2 1.3-1.8q.4-.4.7-.9.9-1.3 1.9-2.6.2-.2.3-.4.1-.2.3-.3v-.1l.1-.1q.1-.2.3-.4 1-1.4 2.1-2.8.1-.1.1-.2.1 0 .1-.1.5-.7 1-1.3.2-.3.4-.5l.4-.6q.3-.4.5-.7.2-.2.4-.5 1.1-1.5 2.3-3.1c16.9-22.6 33.9-45.3 50.3-68.3 16.3-22.8 32.1-45.9 48.2-68.7 15.4-21.7 30.7-43.4 45.8-65.2 8-11.6 15.5-23.3 23.1-35 1-1.5 2.6-2.3 4.3-2.2-.1-1.2.3-2.5 1.1-3.5q.1-.1.1-.2c.9-.8 1.9-1.4 3.2-1.7 1.6-.3 3.3-.4 5-.6q8.6-.9 17.2-1.7c12.6-1.2 25.2-2.2 37.8-3 25.9-1.4 51.8-1.6 77.7-1.2 25.4.4 50.8 1.6 76.3 2.1 25.7.6 51.3.6 77 .4 15.3-.1 30.6-.4 45.9-.7h1.7q1 0 2-.1h5q.3-.1.6-.1h3.7q.3-.1.5-.1h2.2-.3H2468.9h-.2q1.5-.1 3-.1h-.3q4.8-.1 9.5-.2h.8-.1 1.7q.9-.1 1.9-.1h-.1q7.1-.1 14.2-.3h2.8q.9-.1 1.8-.1h2.6-.6q1.7 0 3.5-.1c.6 0 1.3-.1 2 0h1.2q.8 0 1.7-.1h2.8c25.3-.5 50.6-.9 76-1.4q7.6-.1 15.3-.3 4.3 0 8.6-.1h.9q.5-.1.9-.1h4.5q8.1-.2 16.3-.4h-.2c11.1-.2 22.1-.4 33.2-.4 12.4 0 24.8.2 37.1.5 15.6.5 31.2 1.1 46.8 1.6z"/><path d="M2525.3 1401.3c.1 5.4 0 10.8 0 16.3-.1 1.9-.2 3.9-.3 5.9-.1 3-.2 6.1-.4 9.1-.4 4.7-.7 9.5-1.2 14.3l-1.2 10.2c-.3 2.6-.7 5.2-1.1 7.8-.3 2.2-.6 4.5-1 6.8q-.8 4.8-1.7 9.7c-1 5.3-2.2 10.6-3.3 15.9-.5 2.3-1.1 4.5-1.7 6.8-.5 2.2-1 4.5-1.6 6.7-1.6 5.7-3.2 11.4-4.9 17-1.6 5.1-3.2 10.1-5 15.2-2 5.9-4.1 11.7-6.3 17.5-1.7 4.6-3.7 9.1-5.5 13.7-1.1 2.7-2.3 5.3-3.4 7.9q-1.5 3.5-3.1 7c-2.3 4.8-4.5 9.6-6.9 14.4-2.8 5.8-5.8 11.5-8.8 17.3-2.5 4.8-5.2 9.6-7.9 14.3-1 1.9-2.1 3.7-3.2 5.6-1.4 2.3-2.7 4.7-4.2 7.1-5.4 8.8-10.9 17.7-16.7 26.3-6.4 9.4-12.9 18.7-19.6 27.9-6.7 9.2-13.7 18.1-20.8 27-3.2 4-6.6 8-10 12-1.4 1.8-2.9 3.5-4.4 5.2-2 2.3-3.9 4.6-5.9 6.9-7.3 8.1-14.5 16.2-22.1 24-7.5 7.8-15.1 15.5-22.9 22.9-7.7 7.4-15.5 14.6-23.5 21.6-8.4 7.5-16.9 14.8-25.6 21.9-8.8 7.2-17.8 14.3-26.8 21.3-17.2 13.1-34.8 25.8-52.9 37.6-18.6 12.2-37.6 23.9-57.1 34.7-9.9 5.5-19.9 11-30 16.2q-15.4 8-30.9 15.8c-20.5 10.3-41.2 19.9-62.1 29.1-9.7 4.2-19.5 8.2-29.3 12.2-9.7 3.8-19.5 7.7-29.3 11.3-10.5 3.8-21 7.6-31.6 11.2q-16.6 5.5-33.2 10.9c-11.1 3.5-22.4 6.8-33.6 10.1-10.6 3.1-21.3 6-32 8.9-10.4 2.7-20.8 5.3-31.2 7.8-10.3 2.5-20.6 4.9-31 7.1-11.6 2.5-23.3 4.9-34.9 7.2-11.4 2.3-22.8 4.3-34.1 6.3q-30.5 5.5-61.2 9.8c-10.8 1.5-21.6 3.1-32.4 4.3q-8.9 1.1-17.8 2.1c-6.3.7-12.6 1.2-18.9 1.8-5.5.5-11 .9-16.4 1.3-5.8.4-11.5.7-17.3 1.1-10.5.6-21 1.1-31.5 1.3q-15.1.4-30.1.4c-34.3 0-68.6-1.5-102.7-4.8-43.7-4.2-87.2-10.8-130.1-19.6-11-2.2-22.1-4.4-33-6.9q-8.7-2-17.5-4c-5.8-1.3-11.5-2.8-17.3-4.2-10.5-2.6-21-5.5-31.4-8.4-10.6-2.9-21.2-5.9-31.7-9.1-20.7-6.2-41.3-12.9-61.6-20.5-10.5-4-21.1-7.9-31.5-12.2-10.2-4.2-20.5-8.3-30.6-12.8-10-4.5-20.1-9-29.9-13.8l-14.6-7.2c-4.9-2.3-9.6-4.8-14.3-7.3-9.3-4.7-18.4-9.9-27.6-15-4.5-2.5-8.9-5.2-13.4-7.9-2.2-1.3-4.4-2.7-6.7-4l-6.9-4.2c-4.5-2.9-9-5.7-13.5-8.7q-6.5-4.4-13.1-8.8c-4.5-3-8.8-6.2-13.1-9.2-2.2-1.6-4.3-3.2-6.5-4.8-2.2-1.6-4.5-3.3-6.7-4.9-16.8-12.8-33.4-25.9-49.4-39.7-7.8-6.8-15.7-13.5-23.3-20.5-7.8-7.3-15.7-14.5-23.3-22-15.6-15.5-31.1-31.4-45.6-48.1-7.5-8.6-15-17.3-22.3-26.2-7.2-8.9-14.4-17.9-21.3-27-13.6-18-26.6-36.4-38.8-55.4-24.2-37.7-45-77.5-62.9-118.7-4.4-10.3-8.6-20.7-12.6-31.3-4-10.4-7.5-21-11-31.6-6.6-20.6-12.2-41.6-17.1-62.6-.6-2.3-1.2-4.7-1.7-7q0 .1.1.2l-.8-3.4q0-.2-.1-.5l-.4-1.8q-.2-.8-.3-1.5-.2-1-.4-1.9l-.2-.8q-.1-.5-.2-1.1v-.1q-.5-1.9-.9-3.8l-1-5c-1.2-5.9-2.3-11.7-3.4-17.6-2-11-3.9-22.1-5.4-33.2q-.8-5.1-1.4-10.2l-2.6-7.8c-3.6-10.4-6.8-20.9-9.8-31.4-3.3-11.2-6.3-22.5-9.3-33.9-5.5-21.5-9.6-43.3-13.4-65.2-3.7-21.2-6.3-42.6-8.7-64-1.2-11.1-2-22.1-2.8-33.2q-1.1-15.8-1.6-31.6c-.7-21.6-.9-43.2-.4-64.8.3-11.2.5-22.3 1.1-33.4q1-16.8 2.3-33.5c.9-11.3 2.3-22.5 3.6-33.7 1.2-10.3 2.6-20.6 4.1-30.8 3.1-21.2 6.8-42.4 11.5-63.4 4.7-21.6 10.3-43 16.3-64.3 5.4-19.5 11.7-38.9 18.6-57.9 3.8-10.4 7.7-20.7 12-30.9 4.5-10.9 9.2-21.6 14-32.4 4.4-9.7 9-19.3 13.8-28.8 4.7-9.6 9.6-19.2 14.7-28.6 5.5-10 11.1-20 16.9-29.8q9.3-15.4 18.8-30.7c5.7-9 11.5-17.8 17.5-26.6 5.9-8.8 11.9-17.4 18.2-26 6.5-8.9 13-17.8 19.9-26.5q10.8-13.7 21.8-27.2c6.6-8 13.3-15.8 20.1-23.6 6.7-7.7 13.5-15.3 20.5-22.8 15.6-17 31.8-33.5 48.4-49.6 30.1-29.3 62.2-56.6 95.5-82.2 33.7-25.9 68.9-49.9 105.3-71.9 17.8-10.7 35.9-20.8 54.2-30.5 19-10 38.4-19.5 58.2-27.8 19.6-8.3 39.5-15.9 59.7-22.6 19.9-6.5 39.9-12.4 60.1-17.6 20.2-5.1 40.7-9.4 61.2-13.1 22.1-3.9 44.4-6.8 66.8-8.9 82.3-7.9 165.6-5.3 247.4 6.2q15 2.1 29.8 4.7c10 1.8 19.9 3.7 29.9 5.8 20.5 4.3 41 9.3 61.1 15.2 21 6.1 41.6 13.3 62.1 20.9 19.9 7.4 39.6 15.3 59.1 23.7 9.7 4.2 19.4 8.6 28.9 13.2s19 9.3 28.4 14.2c19 10.1 37.7 20.6 55.7 32.5 16.8 11.1 33.5 22.7 49.4 35.3 16.2 13 32 26.6 46.9 41.2 15 14.6 29.6 29.6 43 45.7 14 16.9 27.3 34.4 39.6 52.6 3 4.5 6 9.1 9 13.7 3.3 5.1 6.3 10.3 9.4 15.5 5.3 9.1 10.3 18.5 15 27.9q3.7 7.6 7.4 15.4c2.7 5.5 5.1 11.1 7.5 16.8 2.2 4.8 4.1 9.8 6 14.7 1.8 4.5 3.6 9.1 5.2 13.7q4.9 14.1 9.3 28.3c3.1 10 5.8 20.1 8.4 30.1 2.6 9.9 4.9 19.9 7.1 29.8q3.1 13.4 5.8 26.8c4 19.5 7.8 39 11.6 58.5 3.9 20.1 8 40.2 12.2 60.3 4.3 19.4 8.7 38.7 13.9 57.9 2.4 9.1 5 18.2 7.8 27.2q4.4 14.4 9.4 28.6 3.5 9.6 7.2 19.1c2.4 6.1 5.1 12.2 7.7 18.2 5 11.4 10.5 22.4 16.1 33.4 3.7 7.1 7.5 14.1 11.4 21.1 3.9 7 8 14 12.1 20.9 8.3 14 17.4 27.6 26.5 41.1 24.6 35.6 51 69.9 77.1 104.5q19.8 26.4 38.7 53.6c5.9 8.5 11.6 17.1 17.2 25.9q2.3 3.5 4.5 7c1.5 2.3 2.8 4.8 4.2 7.3 1.2 1.9 2.4 3.8 3.4 5.8l5.6 10.6c5.1 9.6 9.8 19.5 14.5 29.4 4.8 10.1 9.1 20.3 13.4 30.6 4 9.6 7.5 19.5 11 29.3.9 2.5 1.7 5.1 2.5 7.7.7 2.1 1.4 4.1 2 6.2 1.6 5.4 3.2 10.7 4.6 16.1q1.4 5.1 2.7 10.2c.6 2.3 1.1 4.7 1.6 7.1.6 2.4 1.2 4.8 1.7 7.3l2 10.4c1.1 5.3 1.8 10.6 2.7 15.8.4 2.4.6 4.7.9 7 .4 2.7.7 5.4 1 8 .5 5.1 1 10.2 1.3 15.3q.3 5 .6 9.9c.1 3 .1 6 .2 8.9z" style="fill:#eaedf5"/><path fill-rule="evenodd" d="M1400.2 439.1c.4 1.2-.3 2.5-.4 3.8-.8 8.9-2 17.7-2.2 26.8-1.4 76.5 34.3 156.1 50.1 234 10.3 44.3 10.4 87.8-1 126.1-9.4 28.9-17.5 58.4-24.6 88.5-4.8 18.9-5 39.4-4.8 59.9 0 1.1.8 2.3 1.2 3.5.8-.5 2-.7 2.4-1.5 11.4-24.6 25.3-47.7 37.5-71.8 40-83.1 78.8-167.7 100.4-262 12.5-47.8 18-98.6 24.5-149 6.3-38.8 24.8-71.2 44.8-101.2 49-72.5 123.5-119.2 196.7-163.9 2.3-2.4 5.2-2.1 7.2 1 1.4 1.9 1.8 4.9 1.7 7.1-5.3 27.8-16 53.2-27.3 77.6-13.9 27.9-31 53.6-49.4 77.9-48.4 61.8-107.4 112.9-164.7 165.3-9.1 7.2-7.5 21.6-10.5 32.9-4 19.4-7.9 38.8-12.6 57.8-6.8 25.1-14.3 49.8-21.6 74.6-5.8 16.7-11.9 33.2-18.4 49.5-7.2 17.8-14.8 35.2-22.1 52.9-.8 1.8-.8 4.2-1.2 6.4 1.8-1.6 4.2-2.7 5.8-4.5 3.1-6.3 5.8-13 9.5-18.8 14.4-21.5 30.4-41.7 46.9-61.2 71.4-81.2 165.9-139.7 273.8-169.1 8.1-2.3 16.2-4.4 24.2-6.8 3.2-.9 6.4.4 8.2 3.2 1 1.5 0 5-1.3 6.4-38.2 38.7-69.2 84.2-97.1 132.1-33.1 55.2-66.2 113.1-121.3 146.5-51.2 31.4-115.1 42.1-179.6 44.5-2 .1-4.2 1.5-5.1 3.2-5.1 9.2-9.8 18.8-14.7 28.2-10.4 16.4-16.3 36.2-29.2 50.5-.7.9-.5 2.7-.8 4 5.7.8 7.3-4.8 11.1-7.2 26.6-19.7 60.3-29.8 95.1-34.4 9.7-1.5 20.1-1.3 30.2-1.6q40.5-2 82 .8c22.9 0 46.2 1.2 68.9.8 15.4-.6 30.4-2.5 45.6-3.9 4.6-1 11.7-1.4 9.7 5.9-2.9 4.9-5.9 10-9.7 14.2-17.4 19.7-37.6 36-61.1 48.1-49.8 26.4-111.9 30.9-174.8 17.8-18.4-3.3-36.6-11.7-54.8-18.7-15.2-5.8-31.2-14.4-45.3-7.2-.1.1-.3.1-.5 0-3.8-1.8-4.7.9-6 3-12 19.5-23.5 39.3-35.2 58.9-25.6 44.2-53.5 86.5-81.4 128.7-8.7 12.8-17.5 25.4-26.5 37.9-7.4 11.2-17.1 20.6-23.5 32.4 1.5-.1 3.6.4 4.6-.5 5.3-4.4 9.8-9.7 15.5-13.7 25.4-18.9 54.3-32.8 83.5-46.1 27.1-12 56.6-19.5 86-27 16.1-4.5 32.1-9 48.7-12.3 18.5-4.4 36.5-10 55.5-12.9.2 1.1.8 2.3.6 3.2-1.3 4.2-2.4 8.7-4.3 12.6-9.9 19.7-21.2 38.3-35.9 54.1-29.3 33-71.8 51.4-118.2 56.9-32.9 2.6-68.2-7.6-102-10.1-9.3-.5-18.3 1.1-27.3 2.3-3 .3-6.3 1.4-8.2 3.5-33.2 34.9-63.2 72.9-94.4 109.8-16.4 18.3-31.5 37.9-51.8 52.1-1 .7-1.3 2.1-2 3.2 1.6.3 3.5 1.2 4.8.8 9.6-2.9 18.6-6.8 28.5-8.9 15.5-3.2 31.4-5.4 47.3-7.6 48.5-3.4 99.2.5 150.4 11 46.9 9.8 94.2 27.3 140 49.6 2.2 1.2 4.6 3.9 5.5 6.3.6 1.3-1.3 3.8-2.8 4.7-13.5 7.4-26.8 15.2-40.8 21.8-70.8 33.8-167.4 55.6-254-8.6-25.7-18.6-46.5-49.1-76.2-58.4-6.1-2-11.7-2.5-16.4 2.1-31.8 30.4-65.9 58.3-99.7 86.5-42.1 33.1-86 63.8-130.7 93.5-29.9 20.4-60.5 39.6-91.7 58.1-6.9 4.1-14.2 7.6-21.3 11.5-.7.4-1.3 1.6-1.1 2.4.3.7 1.6 1.5 2.5 2 4.6 2.2 8.4 1.3 12.3.2 8-2.2 16.3-4 24.5-5.6 37.8-10.3 79-10.7 119.8-12.7 26.7-1.2 54.5 1.7 82.2 5.5 55.3 7.5 111.3 21.1 166.8 41.3 29.1 10.2 57.7 24.4 86.5 37.5 8.2 3.2 4.9 10.7.3 12.1-34.3 4-68.1 9.8-101.2 17-45.7 9.3-91.2 20.4-140.8 17.9-41.4-2.5-84.3-8.6-125.4-32-45.9-24.2-89.1-57.9-136.7-75.5-1.4-.5-3.2-.5-4.3.1-15.5 8.7-30.9 17.5-46.3 26.2-46.9 26.6-93.7 53.4-142 77.8-.5.3-1.3 0-2 0 .1-.6-.1-1.6.2-1.9 1.9-1.6 3.7-3.5 5.8-4.7 15.2-8.8 30.5-17.4 45.8-26.1l56.6-32c58.3-31.8 113.4-68.3 169.8-102.8 23.6-15.1 46.7-30.7 69.7-46.7 4.7-5.3.1-15.6-1-23.1-3.3-15.1-5.9-30.2-10.3-45.2-10.2-38.3-25.6-75.9-43-113.1-20.7-41-42.5-82.1-58.9-124.3-12.7-34-18.2-69.3-19.7-102.7 0-24.2 1.7-48.1 3.6-71.8 3.4-29.9 11.2-58.1 17.6-86.7 1.7-8.8 8-4.6 12.9 2.1 7.8 10.3 15.7 20.4 23.2 30.8 48.1 63.9 92.3 133.9 105.2 208.2 3.3 15.9 4.6 32 4.5 47.3-.4 38.1-3.3 75.4-9.6 111.3-5.6 37-10.7 74.2-13.2 112.2-.9 13.4-.1 27.3.1 41 0 1.2.6 2.5.9 3.6 1.1-.1 2.5.1 3.4-.4 8.5-5.9 17-11.7 25.3-17.9 15.4-11.7 30.8-23.5 46.1-35.5 69-53.7 132.9-113.8 190.6-180.2 4.2-4.7 8.5-9.3 8.5-17.9 0-19.5-1.2-39.1-7.5-59.3-4.6-14.7-10.3-29.4-16-44-10.6-28-26.2-54.7-41.3-81.3-31.8-55.2-65.2-109.8-92.2-166.8-18.6-37.1-31.4-75.8-36.3-113.9-2.8-16.1-1.9-31.2-.4-46.1.8-7.3 3-14.1 4.7-21 .9-3.7 3.6-3.2 6.3-.2 45.4 58.6 87.8 121.3 125.2 184.6 9.8 16.9 17.6 34.7 27.1 51.7 10.8 19.1 18.7 38.8 25.4 58.6 10.2 32.2 18.3 65.3 21.6 97.3 4.6 47.6.1 93-8.5 136 2.5.5 3.9-1 5.1-2.8 8.2-10.8 16.4-21.7 24.6-32.4 29.3-37.1 56.3-76.3 83.4-115.3 2.8-4.3 7-8.5 6.9-13.6-.1-8.7-2.3-18.2-5.2-27.1-5.9-18.7-10.2-37.6-19.5-55.8-15.4-33.6-35.8-65.3-54.9-97.5-12.9-21.4-24-43.3-29.3-66.5-7.1-28.6-9.9-57-5.9-83.3 3.4-25.9 7.8-51.8 18.4-74 5.9 6.4 4.3 13.9 6.7 21 3.8 11.2 7.7 22.5 12.7 33.4 16.4 35.3 38.4 68.7 58.5 102.5 30.8 53.2 41.4 112.6 39.8 166.1-.6 15.1-3.2 29.6-5.3 44.3-.7 5.1-2.8 9.7-4 14.7-.2 1.1.9 2.7 1.4 4.1 36-52.7 68.4-109 100.3-165.2-1.5-91.5-55.3-184.1-78.9-276.1-7.6-26.1-7-51.3-7.5-76.4-.2-41.4 10.7-78.8 23.8-114.2 11.8-31.5 25.5-61.8 42.5-89.7.8-1.4 2.7-2 4.1-3 1 2.1 2.3 4 3 6.1zM743.6 1715.5c0-.7-.5-1.6-1.1-1.7-2.5-.6-5.1-1.1-7.6-1.7q0 1 .1 2l8.6 1.4zm18 7.6c-.5-1.1-1.4-1.6-2.3-2.1q-.3.8-.4 1.6 1.3.2 2.7.5z" style="fill:#fff"/><path class="s3" d="M1329.3 2094.8c-47.7-6.9-94.8-16.5-142-26.1-20.1-4.1-40.1-9-59.9-14.2-10-2.6-20-5.2-29.9-7.8q-.7-.3-1.4-.5c-43.2-14.3-86.2-28.9-129.3-43.2l-9-3c-11.4-6.4-22.5-13.3-33-21-16.1-11.8-32-23.8-48.5-35q-6.5-4.4-13.1-8.8.1-.2.1-.4 2.3-11.5 4.7-23l4.2-22.2c2.6-13.8 5-27.6 7.5-41.5 10-57 18.7-114.3 26.5-171.7 1.2-8.2 2.2-16.4 3.3-24.6q1.5-11.2 2.9-22.3c3.6-27.9 7.1-55.8 10.2-83.7 3.2-28.3 6.2-56.7 8.1-85.1 2.7-41.7 4.5-83.5 4.4-125.3-.2-14.3-.7-28.6-1.4-42.9-.7-14-1.7-28-2.6-41.9q-1.5-20.8-3.7-41.6c-1.4-13.1-3.1-26.2-4.6-39.3-1.7-14-3.4-28-4.9-42.1-.8-6.7-1.5-13.5-2.2-20.3-.6-6.5-1.3-13-1.6-19.6-.3-6.2-.5-12.5 0-18.8q.4-5 1.2-10c.5-3.5 1.5-6.9 2.6-10.2 2-6.3 5.2-12.2 8.9-17.6 3.8-5.5 8.3-10.6 13.4-15 9.6-8.1 20.2-14.7 31.5-20.3 5.8-2.8 11.9-5.2 18-7.5q8.9-3.3 18-6.1c12.2-3.8 24.7-6.6 37.3-8.7 12.7-2.1 25.6-3.9 38.4-5.6 6.7-.9 13.3-1.8 20.1-2.6 6.5-.8 13.1-1.4 19.8-1.5 12.7-.3 25.8.2 37.8 5.1 12.8 5.1 25 12.2 35 21.7 5 4.8 9.5 10 13.8 15.4 4.3 5.3 8.5 10.7 12.5 16.2 3.9 5.6 7.6 11.3 11.2 17.2 3.4 5.6 6.6 11.4 9.8 17.2 6.4 11.6 12.4 23.4 18.2 35.4 6 12.4 11.6 24.9 17.2 37.5 5.9 12.9 11.5 25.9 17.2 38.9 10.8 24.5 21.9 48.9 32.4 73.6q8.1 18.9 15.6 38.1c4.9 12.4 9.5 25 13.7 37.6q6.8 20.4 12.6 41.1c3.6 13.3 7 26.7 10.1 40.1 3.1 13.3 6.1 26.6 8.6 39.9 1.3 6.9 2.6 13.7 3.7 20.6q1.8 10.8 3.4 21.7c2.1 14.3 3.8 28.7 5.3 43 1.5 14.1 2.8 28.2 3.8 42.3 1.9 27.9 3.1 55.9 3.1 84-.1 28.3-.8 56.7-3.1 84.9-2.2 28.6-5.4 57-9.3 85.4-3.8 27.7-8.2 55.3-12.4 82.9-4.3 28-8.5 55.9-12.5 83.8-4 28.1-7.7 56.3-12.2 84.3q-2.1 13.3-4.4 26.5c-8.4-1.1-16.7-2.2-25.1-3.4z"/><path class="s3" d="M1097.1 2046.5q-2.1-.6-4.1-1.3.2 0 .3.1 1.9.6 3.8 1.3v-.1zM814 1900.9q-2.1-6.6-4.2-13.4c-.7-2.5.4-5.2 3-6.2 2.4-.8 5.5.5 6.2 3q4 13.2 8.4 26.3-6.7-4.9-13.4-9.7zM1254.5 1212.9q-4.2-31.9-8.1-63.8-2.6-21.1-5.5-42.1v.1l-.8-5.6q.1 0 .1.1c-1.2-8.3-2.4-16.7-3.9-25-1.6-8.6-3.5-17.1-5.9-25.5-1.3-4.6-2.7-9-4.4-13.4-.7-1.3-1.3-2.6-2-3.9q-.7-1.2-1.5-2.4-.7-.8-1.4-1.5-.6-.6-1.3-1.1-.2-.2-.4-.3-.6-.4-1.2-.6-.2-.1-.5-.2l.6.2q-.6-.2-1.2-.3-.7-.1-1.3-.1h.1-.4.2-.3.8q-.5 0-.9.1-.4 0-.8.1-1 .3-1.9.7c-4.3 2-8.3 4.7-12.6 6.8q-6.8 3.4-13.9 6.4c-9.3 3.9-18.8 7.2-28.5 10.2-19.7 6-40 10.1-60.3 13.7-9.5 1.7-19 3.3-28.5 4.6q.3 0 .6-.1c-10.4 1.5-20.9 2.8-31.4 3.7q-16.3 1.5-32.5 2c-10.4.4-20.9.4-31.3.4-10.4 0-20.8-.1-31.3-.6q-12.7-.6-25.4-1.8c-8.4-.8-16.7-2.2-25.1-3.4q.3.1.7.1c-.9-.1-1.9-.2-2.8-.3-2.2.7-4.5-.4-5.6-2.5-1.9-3.2.9-7 4.4-7.2 2.4-.1 4.9.4 7.3.7 4.8.7 9.5 1.4 14.3 2h-.6c20.5 2.5 41.3 3.2 62 3.3h11.5c21.1-.1 42.1-1.1 63.1-3.3q8.4-.9 16.8-2h-.6q2.5-.3 5-.7c20.3-3 40.5-6.5 60.5-11q9.6-2.2 19.1-4.8c12.2-3.5 24.2-7.5 35.9-12.4l-.6.2c4.5-1.9 9-3.9 13.3-6.2q3.1-1.6 6.2-3.3c2.7-1.6 5.4-3.1 8.4-4.2s6.4-1.2 9.6-.4c2.8.8 5.2 2.4 7.3 4.4 3.4 3.1 5.8 7.4 7.5 11.6 1.9 4.9 3.5 9.8 4.9 14.9 2.4 8.6 4.3 17.4 5.9 26.2 1.6 8.4 2.8 17 4 25.5q-.1-.3-.1-.6.4 2.8.8 5.5-.1-.3-.1-.6c3 20.8 5.4 41.6 8 62.4q2.8 22.3 5.7 44.6c.4 2.6-1.9 5-4.5 5.2h-.4c-2.5 0-4.5-2-4.8-4.5z"/><path class="s3" d="M996.8 1093.3c-10.8-1.3-21.5-3-32-5.8-4.6-1.3-9.1-2.6-13.5-4.2-4.7-1.8-9.2-3.7-13.6-5.9-4-2.1-7.8-4.4-11.4-7.1-3.1-2.2-6.3-4.7-8.7-7.7q-.7-.7-1-1.7h-.1c-.7-2 .2-4.5 1.9-5.7 1.8-1.2 4.3-1.1 6 .4.3.3.5.6.8 1q-.2-.2-.3-.5.6.8 1.3 1.5c1.2 1.2 2.5 2.3 3.9 3.4 2.7 2.1 5.5 3.9 8.4 5.7q-.3-.2-.5-.3c3.6 2 7.3 3.9 11.1 5.5 6.1 2.5 12.4 4.6 18.8 6.3 8.6 2.2 17.3 3.8 26.1 5h-.1c5.6.7 11.2 1.3 16.8 1.8 5.5.4 11 .5 16.5.6 6.7 0 13.6-.2 20.4-.8q10.5-.9 21-2.3v.1c10.1-1.5 20.2-3.2 30.2-5.4 10.4-2.3 20.7-4.9 31-7.6q9.4-2.4 18.8-5-.1 0-.2.1.5-.2 1-.3.5-.1.9-.3-.1.1-.2.1.5-.2 1-.3h-.1q.6-.1 1.1-.3 9.5-2.6 18.9-5.5c2.6-.7 5.3.4 6.2 3 .9 2.4-.4 5.4-2.9 6.2-6.6 2-13.2 3.9-19.9 5.8l-1 .2q-.7.2-1.3.4-.2.1-.4.1h.2q-.2 0-.3.1-.2 0-.4.1.1-.1.2-.1c-9.8 2.8-19.7 5.3-29.7 7.8-10.3 2.6-20.7 5-31.1 7.1-10.4 2.1-21 3.5-31.6 4.7-10.4 1.2-20.9 1.8-31.4 1.8h-1c-10 0-20-.8-29.8-2z"/><path class="s4" d="M966.8 2003q-4.5-1.5-8.9-3c-11.4-6.4-22.5-13.3-33.1-21-16.1-11.8-32-23.8-48.5-35-15-10.2-30.4-19.9-45-30.6-7.3-5.4-14.6-10.6-22-15.8-7.3-5.1-14.1-10.8-20.9-16.6-10.6-9.3-21-18.8-31.6-28.2-24.5-22-47.3-45.7-70-69.6-21.8-23.1-43.4-46.3-65-69.6q-.1-3.5-.2-7.1c-.3-12-.2-24.1-.2-36.2q.2-18 .5-35.9c.6-24.8 1.5-49.5 1.8-74.3.1-16.1.2-32.3-.3-48.5q-.8-23.7-2.6-47.4c-1-12.4-2.2-24.8-3.9-37.2-1.6-12.6-3.9-25.2-6.4-37.6-2.4-10.9-5-21.6-8-32.3-3-10.9-6.4-21.7-10.1-32.4-3.7-10-7.6-19.9-12-29.6-4.5-10.2-9.3-20.2-14.3-30.2v-.2c-2.5-4.8-5-9.6-7.6-14.3-3.1-5.4-6.3-10.8-9.5-16.2-5.8-9.4-12.1-18.5-18.3-27.6q-10.1-14.7-20.5-29.2c-7-9.8-14-19.7-20.8-29.6-6.7-9.9-13.3-19.9-19.6-30.1-3.2-5.2-6.3-10.4-9.1-15.7-2.9-5.4-5.5-11-7.5-16.8-3.7-10.7-6.6-21.9-6-33.4.2-2.8.6-5.5 1-8.2.6-3.1 1.6-6.1 2.7-9 1.8-5 4.8-9.6 8.1-13.7 3.2-3.8 7-7.2 11-10.2 3.5-2.6 7.2-5.1 10.9-7.5 7.7-4.9 15.8-9.2 23.9-13.5 18.8-9.9 38.1-18.9 57.9-26.6 9.8-3.9 19.8-7.4 29.9-10.4 11.4-3.4 23-6.1 34.6-8.5 20-4.1 40.2-6.6 60.6-7.7 10.3-.6 20.7-.6 31.1-.1.7 0 1.4 0 2.1.1 21.7 1.2 43.1 5.1 63.6 12.3 9.4 3.3 18.5 7.3 27.2 12.1 9.6 5.2 18.7 11.3 27.6 17.7q11.2 8 21.8 16.9c7.7 6.3 15 12.9 22.3 19.7q13 12.1 25.5 24.8c7.6 7.7 15 15.6 22.4 23.4 14.3 15.3 28.8 30.3 42.5 46.1 7.3 8.5 14.3 17.2 20.8 26.3q1.1 1.6 2.2 3.3.3.3.5.7c4.7 6.9 8.9 14.2 12.4 21.9 2.2 4.9 4 10 5.4 15.3 1.5 5.7 2.4 11.7 3 17.6 1.2 11.6.2 23.3-1.3 34.8-1.4 11-3.2 21.9-4.8 32.8q-2.4 15.5-4.5 31c-2.9 20.8-5.2 41.7-7.3 62.6-2.4 22.9-4.5 45.8-6.2 68.8q-1.3 16.8-2.2 33.5v-.6c-1.8 37-2.1 74.1.8 111.1 1.7 20.6 4.6 41.1 7.9 61.5 3.6 22.8 7.9 45.6 12 68.4 2.2 11.8 4.3 23.6 6.2 35.5 1.7 10.8 3.3 21.6 4.6 32.5 2.7 22.6 4.6 45.3 4.7 68.1.1 5.8-.1 11.5-.3 17.3-.2 6-.4 12-.9 18-.9 11.9-2 23.8-3.9 35.6-3.6 23-8.2 45.7-14.8 68-3.8 13.2-8.1 26.2-12.9 39q-14.3-4.8-28.5-9.5zM1450.8 2110.2c-40.4-5.8-81.1-9.6-121.5-15.4q-10-1.4-20-3c2-12.8 3.8-25.6 5.6-38.4 2.9-21.3 5.4-42.7 7.8-64.1 2.4-22.6 4.6-45.2 6.6-67.8 1.9-21.8 3.7-43.7 5.2-65.6 1.1-17.6 2.1-35.3 2.6-53v-.5c.5-16.2.5-32.4.1-48.6q-.7-23.9-3.1-47.6c-3.7-33.4-9.9-66.6-17.9-99.3l.2.6c-3.8-15-7.8-29.9-12.6-44.7-5-15.8-10.8-31.3-16.8-46.7-8.5-21.6-17.5-42.9-26.5-64.3-8.7-20.7-17-41.5-23.7-63-6.6-21.4-12.3-43.2-15.5-65.4-1.7-11-2.8-22.1-3.6-33.2-.8-10.6-1.3-21.1-1.4-31.7-.1-21.4 2.2-42.8 5.3-64 1.5-10 3.2-20 5.6-29.9 2.7-11.3 6.4-22.3 10.5-33.1 4.5-11.8 9.6-23.4 14.8-34.8q-1.2-2-2.5-3.8 0 .1.1.2-2.5-3.4-5.3-6.4l-.4-.4c-5.1-5.3-10.3-10.3-14.7-16.2l-.2-.2v-.1c-2.4-3.2-4.5-6.7-6-10.4-1.9-4.5-2.9-9.2-3-14.1-.1-6.1 1.3-12.1 3.4-17.7 1.3-3.5 2.8-6.9 4.7-10.1 2.2-3.7 4.7-7.1 7.4-10.4 5.1-6.2 12.1-10.3 19.3-13.7 9-4.3 18.5-7.6 28.3-9.9 5.3-1.3 10.7-2.3 16.1-3.1 4.9-.7 9.9-1 14.8-1.3 5.3-.3 10.7-.2 16 0q8.6.4 17.2 1.5c7.6 1 15.2 2.4 22.6 4.6 7.7 2.3 15 5.2 22.3 8.7 7.3 3.4 14.3 7.6 21.2 12q8.4 5.5 16.3 11.8c16.3 13.3 30.8 29.3 40.8 47.8 5.1 9.4 9.1 19.4 12.9 29.4q5.9 15.5 11.1 31.3c6.8 21 12.5 42.3 17.2 63.8 2.6 11.4 4.8 22.9 6.7 34.4q2.8 16.5 5.2 33c1.7 12.1 3.2 24.2 4.5 36.3 1.3 12 2.3 24 2.8 36.1.8 23.6.6 47.2.1 70.8-.6 23.7-1.7 47.4-2.6 71.2-1 24.4-2.1 48.9-4.1 73.3-1.9 22.8-5.1 45.6-9.5 68-4.4 22.7-9.6 45.2-14.4 67.7-4.1 19.3-8 38.6-11.2 58.1-3.5 21.3-6.5 42.7-8.9 64.2-1.2 11.1-2.2 22.3-3 33.4-.8 11.1-1.2 22.1-1.5 33.1q-.1 1.4-.1 2.7c-.4 17.7-.4 35.4-.5 53.1-.1 17.5-.4 34.9-.9 52.3-.3 11.6-.8 23.1-1.7 34.6-.9 11.2-2.4 22.3-4.3 33.4-1.7 10.5-3.8 20.9-6.1 31.3-2.7 11.3-5.5 22.6-9 33.6l-2.8-.4z"/><path class="s5" d="M1174 943.1c-5.3-1.1-9.7-5.7-11.2-10.9-1.4-5.1-.7-10.9.1-16.1q1-6.6 2.4-13c2.4-9.9 5.6-19.6 9.6-28.9q.7-1.8 1.8-3.2c-3.5.1-7.1.3-10.6.4-5 .2-10.1.4-15.1.3-3.4 0-7-.1-10.3-1-5.2-1.5-10.4-5-11.8-10.5-1-3.9-.9-7.8 1.1-11.3 1.8-3.4 4.8-5.9 8.5-7 3.3-1.1 7-.8 10.2.6q.6 0 1.3.1c10.6.2 21.2-.7 31.7-1 13.6-.4 30.4-.2 40.2 10.8 4.7 5.2 5.2 12.5 3.1 19-1 3.1-2.6 5.9-4 8.8-3.6 7-7.8 13.8-11.8 20.7q-6.8 11.8-12.6 24.1c-2.1 4.5-4 9.9-7.6 13.3-3.3 3.3-7.2 5.1-11.6 5.1q-1.6 0-3.4-.3z"/><path class="s5" d="M1185.3 972.3c-1.1-1.8-1.7-3.9-2.3-5.9q0-.2-.1-.4c-2.6-.7-4.7-2.9-5.1-5.7q-2.5-13.8-4.8-27.6c-.8-4.7-1.6-9.3-2.2-13.9-.4-2.4-.8-4.8-1-7.2-.1-1.5-.2-3 0-4.5q-.8-4.4-1.5-9-1.1-2.1-2.3-4.3.3.4.5.8-.9-1.7-1.8-3.3c-4.5-8.1-9.3-16.1-14.6-23.7q-.6-.9-1.3-1.7c-1-.4-2-.9-2.8-1.6-1.5-1.4-2.5-3.4-2.9-5.4-.9-4.5 2.7-8.6 7.2-8.8 3.8-.2 6.6 2.7 8.9 5.4 1.7 1.9 3.1 4 4.5 6.1q2.8 4.2 5.4 8.4c1.4-1.7 3.3-2.9 5.6-3 6.2-.2 9.2 5.9 11.1 10.8 2.4 6.2 4.3 12.6 6.4 18.9 2.1 6.5 4.1 13 6.1 19.5.9 2.9 1.8 5.8 2.7 8.8l1.2 4.6c.6 2.2 1.4 4.6 1.2 6.9-.4 4.6-5.4 7.6-9.5 6.4l2.2 10.2q1 4.2 1.8 8.5c.8 4 2.1 8.5-1.1 11.8-1.4 1.6-3.3 2.3-5.3 2.3-2.4 0-4.8-1.1-6.2-3.4zM818.4 942.2c-5.4-2.1-8.8-7.1-9.6-12.7-.7-4.6-.8-9.3-.8-14q0-9.2.2-18.4c.1-9.4.6-18.9.6-28.4q-.4.2-.9.3-.9.4-1.9.6 0 .5-.1 1c1.5 7.7-4.5 15.3-11.9 16.6-8.1 1.5-15.1-4.1-16.9-11.8-1.2-5.3.1-11.3 1-16.5.9-5.1 2.3-10.2 4.2-15.1 4.3-11 10.9-20.6 19.1-29.2 7.8-8.2 16.8-15.5 26.4-21.5 8.4-5.3 20-11.7 28.7-3.5 4.3 4 6 10.6 3.7 16.1-1.1 2.7-2.7 4.9-4.8 6.9-2.4 2.2-4.9 4.3-7.4 6.2-3.7 2.8-7.2 5.5-10.6 8.6-2.4 2.3-4.7 4.9-6.9 7.5q1.4 1.2 2.4 2.7c2-.4 4.1-.4 6 .1 8 1.9 12.4 9.8 10.9 17.6-1.6 8.6-3.1 17.3-4.5 25.9q.1-.9.3-1.9c-2 12.3-3.9 24.7-5.3 37.1-.8 6.7-.7 14.7-4.6 20.5-2.7 4-7.4 6.3-12.1 6.3-1.8 0-3.5-.4-5.2-1z"/><path class="s5" d="M822.7 849.8c-.2-3 .5-6.3 1.1-9.2.9-4.5 1.8-8.9 3-13.3 2-7.8 9.7-12.7 17.5-10.9 7.6 1.8 12.9 9.8 10.9 17.6-1.2 4.6-2.3 9.4-3.2 14.2q0 .3-.1.7c.3 7.7-6 15.2-13.9 15.2-8.5 0-14.6-6-15.3-14.3z"/><path class="s5" d="M777.5 835.8c0-7.1 4.1-13.1 8.5-18.4 5.3-6.4 11.7-11.6 18.5-16.3 12.9-9 27.5-15.3 41.5-22.3q5.2-2.5 10.3-5.1c7.1-3.6 16.1.1 19.4 7.1 3.5 7.4 0 15.8-7.1 19.4-12.3 6.2-24.8 11.9-36.9 18.4q.8-.4 1.6-.9c-5 2.7-9.9 5.7-14.5 9q-3.4 2.5-6.5 5.3-2.2 2.1-4.3 4.4-1 1.3-1.9 2.6l-.2.8.2-.6q-.1 0-.1.1c-1.8 5.8-6.8 10.3-13.3 10.5h-.6c-7.5 0-14.6-6.2-14.6-14z"/><path class="s6" d="M1220.7 1083.4q.1-1.5-.1-3l.1-.1c2.1-1.4 4.2-2.9 6.1-4.5.6-.5.6-1.3.1-1.8-.4-.6-1.2-.6-1.7-.2q-2.7 1.9-5.5 3.7-.4-1.1-1.2-2.1-1.4-1.8-3.4-2.7 0-.1-.1-.2 2.6-2.1 5.3-4.1l2.6-2q.7-.5 1.4-1.1c.5-.4 1-.8 1.4-1.3q.2-.2.3-.4c5 5.1 6.1 13 1.8 19-2.1 2.9-5.3 4.9-8.8 5.7 1.1-1.4 1.7-3.1 1.7-4.9zM1018 1071.3q.5 3.6.9 7.1c-21.1-1.4-41.8-5.2-62-11.4-27.2-8.3-52.9-20.4-76.4-36.3-14.1-9.6-27.9-20.9-39-34.2-2.7 2.9-6.5 4.8-10.7 4.8q-.7 0-1.4-.1c-7.9-.7-13.9-8-13.1-15.9 1.9-19.2 3.6-38.5 5.5-57.8 1.9-20 3.8-40.1 5.3-60.2 2.5 2.4 5.1 4.7 7.8 6.9 9.9 8 20.5 15.1 31.3 21.9 25.3 15.7 51.7 29.9 75.7 47.7 21.9 16.1 42.5 35.1 55.6 59.2 11.3 21.1 17.1 44.8 20.5 68.3zM1213.5 997c5.7 5.3 6.4 15 .7 20.6q-.8.9-1.7 1.7c-.6.2-1.2.7-1.7 1.1q-.9.8-1.9 1.6-1.8 1.6-3.7 3.2-.1 0-.1.1 2.3-3.1 4.7-6 1.2-1.4 2.3-2.8c.4-.6 1-1.2 1.2-1.9.2-1.2-.6-2.2-1.9-2.3-.7 0-1.3.5-1.8 1q-1 .9-2 1.9-2.1 2.2-4.3 4.5-4.6 4.8-9.1 9.8-1.7 1.8-3.4 3.7c-2-6.8-3.8-13.8-5.2-20.8-1.9-9.7-3.4-19.5-3.6-29.5-.2-9-.4-18.1.4-27.2q.2-2 .5-4 .1.2.1.4c4.3 14.3 8.9 28.6 13.9 42.7 5.3-2.7 11.9-2.2 16.6 2.2zM1204.8 1060.5q.1-.4.1-.8c.2-1.9-.2-3.7-1.5-5q-.7-.7-1.6-1.2v-.2c-.1-1.2-.6-2-1.3-2.9q-.3-.3-.7-.6.1-.2.1-.3c1-2.3 2.7-5.4.6-7.6-.9-.9-2.1-1.3-3.3-1.2h-.1c-.6 0-1.1-.1-1.6.2q-.9.5-1.7 1.1c-.8.3-1.5.9-2.1 1.6q-.2.2-.4.3-.2.2-.4.3 1.9-1.8 3.7-3.5l10.7-10.5q2-1.9 3.9-3.8 5.3 12.6 11.3 24.9-1.2.9-2.5 1.8c-3.5 2.5-7 5.1-10.4 7.7q.1-.1.3-.2-.8.5-1.5 1.1-.8-.7-1.6-1.2zM1209.2 1067.4q0-.3-.1-.5l9.2-7q2.3-1.8 4.7-3.6l1.6 3.2c-.7-.3-1.5-.2-2.2.1-1.1.5-2.1 1.2-3.1 1.9q-1.3.8-2.6 1.7-2.7 1.7-5.3 3.4-1.1.7-2.1 1.4 0-.3-.1-.6z"/><path class="s6" d="M1227.2 1064.8q-.6-.6-1.1-1.2.2-.4.3-.7.6 1.2 1.3 2.4 0 .1.1.3.1.1.2.3-.4-.6-.8-1.1z"/><path class="s0" d="m779.1 811.3-1 .4 1-.4zM779.1 811.3l-1 .4 1-.4zM1023.2 1130.9c.7 11.9 4 31.8-11.2 36.1-1.7.4-3.4.7-5 .7-2.8 0-5.5-.7-7.9-2.1-1.5-.8-2.8-1.8-4.2-2.8-2.3-1.6-4.7-3.2-7.1-4.7-8.6-5.3-17.5-9.9-26.4-14.6-11.1-5.9-22.4-11.6-33.5-17.5-7.7-4.2-15.3-8.5-23-13q-7-4.1-13.9-8.3c-1.6-.9-3.1-1.8-4.6-2.8q-.1-.1-.3-.2-2.3-1.4-4.6-2.9-4.1-2.6-8.2-5.3c-11-7.2-21.8-14.7-32.3-22.6-22.7-17.2-43.7-37-62.7-58.3-12.3-13.7-23.9-29-31.1-46.1-2-4.8-4.5-10.3-3.8-15.6q-.1.5-.1 1.1c.3-4.8 2.7-9.1 6.3-11.7 2.2-5.1 3.9-10.3 5.6-15.5 1.3-4.6 2.4-9.3 3.3-14 1.1-7.1 1.6-14.3 1.9-21.4.3-16-.6-32 .5-48 .6-7.4 1.6-14.8 3.3-22 4.1-2.4 8.3-4.8 12.5-6.9v-.1q.5-.2.9-.4.8-.4 1.6-.7l.4-.2q3.4-1.6 7-3 2.3-.9 4.7-1.8 3.5-1.3 7.1-2.4 2.8-.8 5.6-1.5 5.6-1.5 11.4-2.7-1.1 1.2-2.2 2.5-1 1.3-2 2.8-1.8 3.1-3.4 6.3c-.8 1.7-1.5 3.5-2.1 5.2q-.4 1.5-.7 3.1-.2 1.4-.2 2.9 0 3.3.3 6.6.3 2.8.9 5.5 1 3.5 2.2 7 1.2 2.8 2.6 5.5 1.9 3.4 4.1 6.6 3.6 4.9 7.8 9.3c3.8 4 7.9 7.7 12.2 11.2 9.9 8 20.5 15.1 31.3 21.9 25.3 15.7 51.7 29.9 75.7 47.7 21.9 16.1 42.5 35.1 55.6 59.2 11.3 21.1 17.1 44.8 20.5 68.3 1.6 10.9 2.4 21.8 3.1 32.7.7 9 1.5 17.9 2.1 26.9zM1299.6 1016.2c.4 4.9.5 9.8.4 14.7-.1 4.4-.2 8.8-.7 13.1q-.4 3.6-1.1 7.1c-.4 2.3-.9 4.6-1.4 6.9-1 5-2.4 9.9-3.8 14.8l-1.4 4.8c-2.6 8.4-5.6 16.7-9.3 24.7-3.1 6.7-6.7 13.2-10.5 19.6-5.1 8.4-10.5 16.6-16.5 24.4-1 1.4-2 2.7-3.2 4-.8 1-1.8 1.8-3.1 2.3q-.6.2-1.3.2c-1 0-2-.4-2.8-.8-1.7-.9-3-2.5-4.1-4-1.3-1.8-2.5-3.6-3.5-5.5-1.8-3.3-3.5-6.6-5.2-10q-3-5.9-6-11.9c-4-8.3-8-16.7-11.7-25.1q-6.1-13.8-11.5-27.8c-3.6-9.3-7.1-18.6-10.2-28.1-2.8-8.9-5.3-18-7.1-27.2-1.9-9.7-3.4-19.5-3.6-29.5-.2-9-.5-18.1.4-27.2.4-4.4 1.2-8.7 2.1-13 1-5 2.6-10 4.5-14.8 1.7-4.1 3.7-8.2 5.7-12.2 1.7-3.3 3.6-6.7 5.5-9.9 4.2-7.1 9.1-13.7 13.5-20.7l-.2.2c1.5-2.3 2.8-4.8 3.9-7.3v.1q0-.1.1-.1 0-.1.1-.2-.1 0-.1.1c.6-1.3 1-2.6 1.4-3.9l.1-.1q.4-1.4.6-2.8v-.1c.1-.3.1-.7.1-1q.1-1.8-.1-3.6c-.1-.7-.3-1.4-.4-2.1v-.1q-.1 0 0 0l-.1-.1q-.2-.8-.5-1.6t-.7-1.6c-.5-.9-1.1-1.8-1.7-2.6-1.3-1.8-2.7-3.4-4.1-5l-.1-.1c0-.1 0-.1-.1-.1-2.7-2.9-5.8-5.5-8.9-8.1l-.8-.6c-3.6-2.9-7.2-5.6-11-8.3-2.9-1.5-5.8-2.9-8.8-4.2q-7.2-3.3-14.7-5.6c-1.3-.4-2.5-.7-3.7-1-.7-.2-1.4-.3-2-.5-1.3-.4-2.2-1.6-1.8-2.9.3-1.3 1.6-2.2 2.9-1.8 1.3.4 2.7.6 4 .9l.6.2q-3.5-1.9-7-3.7c-1.2-.6-1.6-2.2-1-3.3.7-1.2 2.1-1.6 3.3-1 7.4 3.7 14.4 7.9 21.3 12.4q4.8 3.1 9.6 6.4l5.2 2.8q5.7 3.4 11.2 7.2c3.3 2.4 6.6 5 9.4 7.9 1.5 1.5 2.8 3.1 4.1 4.6 1.2 1.6 2.4 3.2 3.5 4.9 2.5 4.1 4.4 8.4 5.9 12.9s2.8 9 3.7 13.6c1.1 5.3 1.7 10.7 2.1 16.1.4 4.9.5 9.8 1 14.8q.4 3.9 1.3 7.7 0 .1.1.2c.3 1.3.6 2.5 1.1 3.7q1.2 3.1 2.7 6.1 1.1 1.9 2.3 3.7c1 1.3 2.1 2.6 3.2 3.8q2.1 2.3 4.6 4.3c2 1.7 4.2 3.2 6.4 4.7 3.7 2.3 7.5 4.3 11.2 6.4q2.5 1.5 5 3.2 1.2.8 2.4 1.8c.9.7 1.7 1.6 2.5 2.4q2 2.2 3.7 4.5c1.3 1.8 2.4 3.6 3.5 5.5 1 2.1 2 4.2 2.8 6.4.8 2.1 1.3 4.2 1.9 6.3 1.3 4.5 2.3 9 3 13.6.8 5 1.5 10 1.9 15.1zM1435.5 2108.1q3.4-24.2 5.5-48.6 3.1-34.2 5.3-68.4c.8-13.7 1.5-27.4 1.9-41.1.6-23.4.7-46.7.4-70.1-.2-23.2-1-46.4-2.6-69.6-1.1-15.2-2.4-30.5-4-45.7q-1.4-12.6-3-25.1c-1.9-14.5-4.1-28.9-6.8-43.3-4.2-22.4-8.8-44.6-13.9-66.8q-1.5-6.7-3.2-13.5c-.9-3.9-1.9-7.7-2.9-11.5q-.5-2-.9-4c-.2-1.2-.4-2.4-.1-3.6.6-2.5 3.2-4.2 5.8-3.6 2.3.5 3.9 2.7 3.8 4.9.2 1.3.5 2.6.8 3.9l.1.1v.1q0 .1.1.2c2.6 10.6 5.2 21.1 7.6 31.8q3.6 16.5 7 33.1c2 9.7 4 19.4 5.7 29.2q.5 2.4.9 4.7c2 11.5 3.7 22.9 5.3 34.4q.2 1.9.5 3.8 3.2 24.9 5.3 49.8 2-3.3 4.3-6.5c4.4-6.3 9.6-12 15.4-17 13.5-11.9 30-20.1 46.7-26.2q.2-.1.4-.1 4.7-1.7 9.5-3.1 6.6-1.9 13.3-3.3 1.2-.3 2.4-.5c9.4-1.8 19.1-3.1 28.7-3.9 9.5-.9 19.2-.9 28.7-.2 5.1.3 10.1 1 15 1.9 4.8.8 9.4 1.9 14.1 3.1 6.2 1.5 12.5 3.2 18.6 5.2q-14.4.3-28.8.5c-13 .1-26.1.1-39.1 0h-22.6c-11.7 0-23.5.1-35.2.2-6.7 4.5-13 9.7-18.5 15.7-4.5 5-8.7 10.4-12.3 16.2-1.8 2.9-3.6 5.9-5.1 8.9-1.8 3.5-3.3 7.1-4.7 10.8-5.2 13.3-9 27.4-10.5 41.6-1.3 13.3-1.5 26.8-.5 40.1.5 7.6 1.4 15.1 2.9 22.6q2 10.2 5 20c3.9 13 9.9 25.4 18.6 35.9 2.4 2.9 4.9 5.9 7.7 8.5 2.1 2 4.3 3.9 6.6 5.7 4.8 3.8 9.8 7.3 15.2 10.2q8.6 4.8 17.8 8.4c5.6 2.2 11.4 4.1 17.3 5.5 7.3 1.6 14.9 2.4 22.4 2.4q4.7 0 9.4-.4-11.2 3.9-22.8 6.8c-9.9 2.4-20 4-30.2 5.1H1543.2h.1q-.4.1-.9.1h.3c-9.7 1.1-19.4 1.7-29.2 1.7h-.9c-9.9-.1-19.9-.8-29.7-2-8.3-1-16.9-2.3-24.6-5.8-.8-.5-1.8-.9-2.6-1.5q-.6 9.1-1.2 18c-1.7 22.7-3.4 45.3-5.9 67.9q-1.5 13.9-3.5 27.7-4.8-.7-9.6-1.3zM2145.1 1558.9c2.1 6.8 2.7 13.9 1.4 20.9-1.4 8-5.4 15.3-9.5 22.2-4.8 7.9-10.1 15.4-15.5 22.8-10.4 14.4-21.1 28.7-31.6 43.1-5 7-10 14-14.9 21-5 7.3-9.9 14.7-14.9 22.1-9.6 14.1-19.2 28.3-28.9 42.4l-8.8 12.6q-6.4 2.6-12.7 5.2-2.1.8-4.1 1.7c7.5-10.4 14.8-21 22-31.5 9.9-14.5 19.8-29 29.6-43.6 4.8-7.1 9.6-14.2 14.5-21.2 5-7.1 10.1-14.1 15.2-21.1 10.6-14.5 21.4-28.8 31.8-43.4 2.9-4.2 5.8-8.4 8.5-12.7 2.5-4.1 5-8.4 7.1-12.8q1-2.5 1.8-5v-.1q.6-2.2 1.1-4.5.2-1.9.3-3.7 0-2-.1-3.9-.3-2.5-.9-5-.7-2.8-1.7-5.5-.5-1.2-1.1-2.3l-.6-1c-.8-.9-1.4-2-1.4-3.3-.1-2.5 2-5 4.6-5 3.3 0 4.9 2.5 6.2 5.1 1.1 2 1.9 4.3 2.6 6.5z"/><path class="s0" d="M2756.5 1012.3c2.6.1 4.7 2.5 4.6 5.1-.1 2.7-2.4 4.7-5.1 4.7q-.3-.1-.7-.1c1.2 1.6 1.3 3.8.2 5.6-12 19.3-25.2 37.9-38.3 56.5-14.7 21-29.7 41.7-44.5 62.6-7.7 11-15.3 22-22.8 33.2-6.8 10.2-13.6 20.4-20.5 30.6-14.1 20.8-28.4 41.5-42.9 62q-10.3 14.4-20.3 28.8c-8 11.6-15.8 23.3-23.7 35-7.4 10.8-14.7 21.6-22.1 32.3-7.6 10.9-15.3 21.7-22.9 32.5-7.7 10.8-15.2 21.7-22.7 32.6-7.3 10.5-14.3 21.2-21.4 31.8-7.5 11.1-14.9 22.3-22.5 33.3-7.7 11.4-15.4 22.6-23.1 33.9-7.6 11-15.1 22.1-22.8 33-7.7 11-15.6 22-23.4 33-8.2 11.4-16.3 22.8-24.4 34.2q-12.3 17.5-24.2 35.2c-7.9 11.8-16.1 23.3-24.3 34.8-3.9 5.4-7.8 10.8-11.8 16.1-2.2 3-4.5 5.9-6.9 8.8q-.8 1.1-1.7 2.2c-.7 1.3-2.1 2.2-3.6 2.5q-.1.1-.3.2c-.9.7-2.1 1-3.1.9h-.1q-3.1.1-6.2.1c-6.8 0-13.5-.2-20.2-.3q-15.1-.3-30.1-.3c-11.8 0-23.5.2-35.3.4H2166.6q-1.4.1-2.8.1h-2.2q-.2.1-.5.1l-21.7.4h.1q-1 0-1.9.1-14.9.2-29.8.2-1.1.3-2.2.7-.2 0-.5.1-.4.1-.8.3c-.6.2-1.3.3-1.9.5l-5.4 1.8c7.4-12.7 14.7-25.4 21.9-38.2 6.7-11.8 13.4-23.7 19.9-35.6 6.9-12.4 13.7-24.8 20.2-37.4 5.8-11.2 11.5-22.6 17.2-33.9 4.9-9.7 10-19.5 14.4-29.5 2.5-5.7 5.2-11.8 5.5-18.1 0-4.1-1.2-8.7-4.8-11-2.7-1.8-6.1-2.5-9.3-2.8-5.6-.5-11.4.3-16.8 1.6q-.2 0-.5.1-1.6.4-3.1.9c-3.4 1-6.5 2.6-9.2 4.9-3.1 2.7-5.9 5.7-8.5 8.9-2.6-1.6-5.3-3-8.1-3.8-4.7-1.4-9.8-1.3-14.6-.6-4.8.8-9.5 2.3-13.8 4.4-9 4.4-16.9 10.7-23.9 17.9-7.2 7.3-13.7 15.4-19.7 23.7-3.4 4.7-6.8 9.5-10 14.4q.1.2.3.4c3.2 4.4 5.7 9.5 7.1 14.8.8 2.9 1.3 5.8 1.3 8.8 0 3-.4 6-1.1 8.9-1.4 5.7-4.2 10.8-7.9 15.4-2.6 3.1-5.5 5.9-8.2 8.8q-5.2 5.5-10 11.4-.1 0-.1.1-.1.1-.2.1c-6.1 7.7-12 15.7-17.7 23.7q-9.2 12.8-17.7 26c-9.6 15-19.1 30.2-29.1 45-3.7 5.5-7.4 10.9-11.3 16.2-.9 1.3-2.5 2-4 2-1 0-1.9-.3-2.8-.9-2.1-1.5-2.7-4.6-1.1-6.7 10-13.8 19.3-28.1 28.4-42.4 5-7.7 9.8-15.4 14.8-23.1 5.6-8.6 11.5-17.1 17.6-25.5 5-6.9 10-13.7 15.4-20.3q5.1-6.4 10.7-12.4c2.7-2.8 5.6-5.6 8.1-8.6l.1-.1q1.1-1.4 2.1-3 .1 0 .1-.1c.7-1.1 1.3-2.3 1.8-3.5q.7-1.4 1.1-2.9c.4-1.3.8-2.7 1-4.1q.2-1.6.3-3.2v-.1q0-1.4-.2-2.8-.2-1.9-.6-3.7-.5-2-1.3-3.9 0-.1-.1-.1-.8-2.2-1.9-4.2-1.3-2.2-2.7-4.3l-.2-.2-.1-.1v-.1q-1.1-1.4-2.3-2.7c-.5-.5-1-1-1.6-1.4q-.1-.2-.3-.3-.1-.1-.3-.1c-1.5-.7-2.6-2.5-2.6-4.1q0-.5.1-1l-1.2-.4c-4.6-1.2-9.3-.7-13.9.4s-9 2.8-13.2 4.8c-8.9 4.2-16.3 10.8-23.3 17.5-7 6.8-13.6 13.9-20 21.2-6.6 7.4-13.2 15-19.7 22.5-10.1 11.5-20.2 23.1-30.3 34.7-1.4 0-2.7.6-3.8 1.7-1.2 1.1-2.4 2.3-3.5 3.5-2.6 2.8-5.2 5.5-7.7 8.4q-1 1.2-2 2.3-2.5 2.2-5 4.3.4-.1.7-.1-1.3 1.3-2.6 2.5-2.5 2.7-5.1 5.4l-1.6 1.6-1 1.2c-.4.4-.8.8-1.1 1.2q-.4 0-.7.1h-2.5c-1.9 0-3.9 0-5.8.1h-2.6c-3.8.2-7.7.4-11.5.7-17.6 1.2-35.1 2-52.7 2.3l-4.2-1.8c-6.8-2.7-13.8-4.8-20.9-6.7l-4.2-1c-9.1-2.1-18.3-3.7-27.5-4.7q-.2-.1-.4-.1h-.5c-9.9-1.1-19.9-1.7-29.8-2.2-9.8-.4-19.6-.8-29.3-1.7-6.7-.6-13.4-1.3-20-2.4-3.4-.6-6.7-1.3-10-2.2-2.5-.7-5-1.8-7.5-2.6-1.3-.1-2.5-.7-3.3-1.8-2.7-.6-5.3-1.5-7.5-3.2q-.8-.6-1.4-1.3l-4.4 6.6c-2.1 3.3-4.3 6.5-6.2 9.9q-.1.2-.2.3c-.8 1.8-2.5 3-4.5 3h-.9c-2.6-.5-4.4-3.1-3.9-5.7.2-1 .7-1.8 1.2-2.7q.9-1.4 1.8-2.9 2.5-4.1 5.2-8.2 3.4-5.2 6.9-10.4 2.3-3.3 4.5-6.6c7.9-11.7 15.7-23.6 23.5-35.4 16-24 32.2-47.9 48.5-71.6q25.4-36.9 51.2-73.5c16.7-23.8 33.5-47.4 50.2-71.2 17.1-24.3 34.1-48.7 51.4-72.8 13-18.2 26.1-36.2 39.5-54l.2-.4.1-.1c.5-.7 1-1.5 1.6-2.1q.3-.5.7-1l2.6-3.4q-.2.3-.4.5.2-.2.3-.4 1.1-1.5 2.3-3c.1-.2.2-.4.4-.6l.1-.1q2.4-3.3 4.9-6.6l2.8-3.8c1.8-2.3 3.5-4.7 5.3-7q.1-.1.1-.3h.1c.4-.6.9-1.2 1.3-1.8q.4-.4.7-.9.9-1.3 1.9-2.6.2-.2.3-.4.1-.2.3-.3v-.1q.1-.1.2-.1 0-.2.2-.3 1-1.5 2.1-2.9.1-.1.1-.2.1 0 .1-.1.5-.7 1-1.3.2-.3.4-.5l.4-.6q.3-.3.5-.7.2-.2.4-.5 1.1-1.5 2.3-3.1c16.9-22.6 33.9-45.3 50.3-68.3 16.3-22.8 32.1-45.9 48.2-68.7 15.4-21.7 30.8-43.4 45.8-65.2 8-11.5 15.5-23.3 23.1-35 1-1.5 2.6-2.3 4.3-2.2-.1-1.2.3-2.5 1.1-3.5l.1-.1c.9-.9 1.9-1.5 3.2-1.8 1.6-.3 3.3-.4 5-.6q8.6-.9 17.2-1.7c12.6-1.2 25.2-2.2 37.8-3 25.9-1.4 51.8-1.6 77.7-1.2 25.4.4 50.9 1.6 76.3 2.2 25.7.5 51.3.5 77 .3 15.3-.1 30.6-.4 45.9-.7h1.7q1 0 2-.1h5q.3-.1.6-.1h3.7q.3-.1.5-.1h2.2-.3H2468.9h-.2q1.5-.1 3-.1h-.3q4.8-.1 9.5-.2h.8-.1 1.7q.9 0 1.9-.1h-.1q7.1-.1 14.2-.3h2.8q.9-.1 1.8-.1h2.6-.6q1.7 0 3.5-.1h3.2q.8 0 1.7-.1H2517.1c25.3-.5 50.6-.9 76-1.4q7.6-.1 15.3-.3 4.3 0 8.6-.1h.9q.5-.1 1 0 2.2-.1 4.4-.1 8.2-.2 16.3-.4h-.2c11.1-.2 22.2-.4 33.2-.4 12.4 0 24.8.2 37.1.6 15.6.4 31.2 1.1 46.8 1.5z"/><path class="s6" d="m1890.7 1724.5-1.4 1.4c-1.1 1.1-2.2 2.1-3.4 3.2q-.5.5-1.1 1l-.5.5h-.1c-.4.2-.6.7-.6 1.1q0 .3.1.5h-2.5c-1.9 0-3.9 0-5.8.1h-2.6c-3.8.2-7.7.4-11.5.7-17.6 1.2-35.1 2-52.7 2.3q-3.6.1-7.2.1c-19.4.1-38.7.2-58 .6-20 .3-39.9 1-59.9 1.7q-16.2.6-32.3.9-14.4.3-28.8.5c-13 .1-26.1.1-39.1 0h-22.6c-11.8 0-23.5.1-35.2.2q2.4-1.6 4.9-3 2.5-1.6 5.1-3 4.1-.2 8.2-.3 1.6-.1 3.1-.1l14.2-.6-1.6.6q4.5-.3 9.1-.6c9.5-.6 19.1-1.2 28.7-1.6 7.1-.3 14.2-.4 21.3-.4h18.2q10.2.1 20.4 0c20.2-.1 40.4-.7 60.5-1.5 20.6-.8 41.2-1.9 61.7-3h.4q12.7-.7 25.5-1.5c.8.3 1.6.5 2.3.7q1.5.3 3 .4c.4 1.1 1.2 2 2.3 2.4.7.4 1.5.6 2.4.6q2.1.3 4.3.3c1.9 0 3.9-.1 5.8-.2h-.5q1.3 0 2.6-.1h1.4-.1q3.5 0 6.9-.2c3.4-.2 6.8-.5 10.3-.7 3.1-.2 6.2-.5 9.2-1h.2c4.7-.7 9.4-1.7 14.2-2.4q5.4-.7 10.8-.6h1.7c1.3 0 2.7.2 3.8-.2q.4.5 1 .9c.9.6 2.1.8 3.2.6q.3-.1.7-.3zM2062.5 1627.7c0 3-.4 6-1.1 8.9-1.4 5.7-4.2 10.8-7.9 15.4-2.6 3.1-5.5 5.9-8.2 8.8q-5.2 5.5-10 11.4-.1 0-.1.1-.1.1-.2.1c-6.1 7.7-12 15.7-17.7 23.7q-9.2 12.8-17.7 26c-9.6 15-19.1 30.2-29.1 45-3.7 5.5-7.4 10.9-11.3 16.2-.9 1.3-2.5 2-4 2-1 0-1.9-.3-2.8-.9-2.1-1.5-2.7-4.6-1.1-6.7 10-13.8 19.3-28.1 28.4-42.4 5-7.7 9.8-15.4 14.8-23.1 5.6-8.6 11.5-17.1 17.6-25.5 5-6.9 10-13.7 15.4-20.3q5.1-6.4 10.7-12.4c2.7-2.8 5.6-5.6 8.1-8.6l.1-.1q1.1-1.4 2.1-3 .1 0 .1-.1c.7-1.1 1.3-2.3 1.8-3.5q.7-1.4 1.1-2.9c.4-1.3.8-2.7 1-4.1q.2-1.6.3-3.2v-.1q0-1.4-.2-2.8-.2-1.9-.6-3.7-.5-2-1.3-3.9 0-.1-.1-.1-.8-2.2-1.9-4.2-1.3-2.2-2.7-4.3l-.2-.2-.1-.1v-.1q-1.1-1.4-2.3-2.7c-.5-.5-1-1-1.6-1.4q-.1-.2-.3-.3-.1-.1-.3-.1c-1.5-.7-2.6-2.5-2.6-4.1q0-.5.1-1c2.9.9 5.7 2.2 8.2 4q2.5 1.7 4.4 3.9 1.3-1.8 2.5-3.6.1.2.3.4c3.2 4.4 5.7 9.5 7.1 14.8.8 2.9 1.3 5.8 1.3 8.8zM2145.1 1558.9c2.1 6.8 2.7 13.9 1.4 20.9-1.4 8-5.4 15.3-9.5 22.2-4.8 7.9-10.1 15.4-15.5 22.8-10.4 14.4-21.1 28.7-31.6 43.1-5 7-10 14-14.9 21-5 7.3-9.9 14.7-14.9 22.1-9.6 14.1-19.2 28.3-28.9 42.4l-8.8 12.6c-5.4 7.6-10.8 15.2-16.4 22.7-1 1.3-2.5 2-4 2-1 0-2-.3-2.8-.9-2.1-1.5-2.7-4.6-1.1-6.8q3.8-5 7.5-10.1c7.5-10.4 14.8-21 22-31.5 9.9-14.5 19.8-29 29.6-43.6 4.8-7.1 9.6-14.2 14.5-21.2 5-7.1 10.1-14.1 15.2-21.1 10.6-14.5 21.4-28.8 31.8-43.4 2.9-4.2 5.8-8.4 8.5-12.7 2.5-4.1 5-8.4 7.1-12.8q1-2.5 1.8-5v-.1q.6-2.2 1.1-4.5.2-1.9.3-3.7 0-2-.1-3.9-.3-2.5-.9-5-.7-2.8-1.7-5.5-.5-1.2-1.1-2.3l-.6-1c-.8-.9-1.4-2-1.4-3.3-.1-2.5 2-5 4.6-5 3.3 0 4.9 2.5 6.2 5.1 1.1 2 1.9 4.3 2.6 6.5z"/><path class="s0" d="M1952.4 1784.4c-2.1-1.5-2.7-4.6-1.1-6.7 10-13.8 19.3-28.1 28.4-42.4 5-7.7 9.8-15.4 14.8-23.1 5.6-8.6 11.5-17.1 17.6-25.5 5.1-7.1 10.3-14.1 15.7-20.8q-.2.2-.3.5 5.1-6.4 10.7-12.4c2.9-3 5.9-5.9 8.5-9.1q-.2.2-.4.5 1.4-1.7 2.6-3.6-.2.2-.4.5 1.1-1.7 1.9-3.6.7-1.4 1.1-2.9.6-2 1-4.1.2-1.6.3-3.3v.7q0-1.8-.2-3.5-.2-1.9-.6-3.7-.6-2.1-1.3-4 .1.2.2.5-1-2.4-2.2-4.7-1.4-2.3-2.9-4.5l.2.2-.3-.3q0-.1-.1-.2 0 .1.1.1-1.1-1.4-2.3-2.7-.7-.8-1.5-1.4-.2-.2-.4-.3-.1-.1-.3-.1c-1.5-.7-2.6-2.5-2.6-4.1 0-2.7 1.9-5 4.7-5.1q.7 0 1.4.2h.1-.1q.5.1.9.3.1.1.2.1c1.4.7 2.6 1.7 3.8 2.8 1.7 1.6 3.1 3.5 4.5 5.4 3.2 4.4 5.7 9.5 7.1 14.8.8 2.8 1.3 5.8 1.3 8.8 0 3-.4 6-1.1 8.9-1.4 5.7-4.2 10.8-7.9 15.4-2.6 3.1-5.5 5.9-8.2 8.8q-5.3 5.6-10.1 11.5 0-.1.1-.1-.1.1-.3.2c-6.1 7.7-12 15.7-17.7 23.7q-9.2 12.8-17.7 26c-9.6 15-19.1 30.2-29.1 45-3.7 5.5-7.4 10.9-11.3 16.2-.9 1.3-2.5 2-4 2-1 0-1.9-.3-2.8-.9zM1999.2 1789.8c-2.1-1.5-2.7-4.6-1.1-6.8 10.2-13.6 19.9-27.6 29.5-41.6 9.9-14.5 19.8-29 29.6-43.6 4.8-7.1 9.6-14.2 14.5-21.2 5-7.1 10.1-14.1 15.2-21.1 10.6-14.5 21.4-28.8 31.8-43.4q4.5-6.3 8.6-12.9-.1.1-.1.2c2.5-4.1 5-8.4 7.1-12.8q-.1 0-.1.1 1.1-2.5 1.9-5.2v.1q.6-2.3 1.1-4.6.2-1.9.3-3.8 0-1.9-.1-3.8-.3-2.5-.9-5-.7-2.8-1.7-5.5-.5-1.2-1.1-2.3l-.6-1c-.8-.8-1.4-2-1.4-3.3-.1-2.5 2-5 4.6-5 3.3 0 4.9 2.6 6.2 5.1 1.1 2 1.9 4.3 2.6 6.5 2.1 6.8 2.7 13.9 1.4 20.9-1.4 8-5.4 15.3-9.5 22.2-4.8 7.9-10.1 15.4-15.5 22.8-10.4 14.4-21.1 28.7-31.6 43.1-5 7-10.1 14-14.9 21-5 7.3-9.9 14.7-14.9 22.1-9.6 14.1-19.2 28.3-28.9 42.4-8.2 11.9-16.5 23.7-25.2 35.3-1 1.3-2.5 2-4 2-1 0-2-.3-2.8-.9z"/><path class="s6" d="M1895.8 1720.2q-1.3 1.3-2.6 2.5-2.5 2.7-5.1 5.4l-1.6 1.6-1 1.2c-.4.4-.8.8-1.1 1.2q-.4 0-.7.1h-2.5q1-.9 2.1-1.8 3.3-2.8 6.7-5.6 2.6-2.3 5.1-4.5.4-.1.7-.1z"/><path class="s0" d="M2108.6 1735.7q-4.7-.3-9.5-.5.2-.2.4-.5c2-2.9 4.1-5.8 6-8.9 19.4.9 38.8 2 58.3 2.1 24 .2 47.9-1.4 71.8-2.7 9.9-.6 19.7-.9 29.6-1.4 2.6-.1 4.9 2.3 4.9 4.8.1 2.8-2.1 4.9-4.8 5-8.8.4-17.7.6-26.5 1.1-10.4.6-20.8 1.3-31.2 1.8-12.9.6-25.7 1.2-38.6 1.2-20.1 0-40.3-1-60.4-2zM1895.8 1720.2q-1.3 1.3-2.6 2.5-2.6 2.7-5.1 5.4c-.9.9-1.8 1.8-2.6 2.8-.4.4-.8.8-1.1 1.2q-1.5.1-2.9.1c-2.9 0-5.8 0-8.7.1-3.8.2-7.7.4-11.5.7-20 1.4-39.9 2.2-60 2.4-19.3.1-38.6.2-57.9.6-20 .3-40 1-59.9 1.7q-30.6 1.1-61.1 1.4c-13.1.1-26.1.1-39.1 0h-22.7c-21.5.1-43.1.3-64.6.3-22.8 0-45.6 0-68.4.1-18.6.1-37.3.3-55.9.3h-8l-59-.3c-39.3-.3-78.6-.8-117.9-.6h-34.4q-12.9-.1-25.8-.1c-16.9 0-33.9.2-50.8-.1-7.4-.2-14.7-.5-22-1.2-5.2-.4-10.4-.9-15.4-2.1-5.3-1.3-10.8-3.5-14.2-8-2.7-3.6-4.6-7.9-5.4-12.3-1.1-4.9 0-10 3.4-13.7 3.9-4.2 10.2-4.9 15.6-5.1 4.7-.3 9.3 0 14 .1q6.4.2 12.9.4c10.7.3 21.4.7 32.2 1 13.7.3 27.4.4 41.2.4 19.4.1 38.8.3 58.2.2 23.2-.1 46.4-.1 69.7-.5 10-.1 20-.2 30-.4l28.7-.6c21.8-.5 43.6-.8 65.4-1 9.9-.1 19.8-.1 29.6 0 13 .2 25.9.7 38.8 1.2 19.8.6 39.7.8 59.5.9q30.7 0 61.4-1.1c10.4-.4 20.8-.9 31.2-1.5q9.8-.6 19.6-1.4h.3q7.9-.6 15.8-1.3l24-1.8q9.5-.7 18.9-1.3 4-.2 8-.5 1.6 0 3.3-.1c.9 0 1.8-.1 2.7.1.8.3 1.5.7 2.1 1.2q.7.1 1.5.3c7.5 1.9 15 4.3 22.4 6.5q5.3 1.6 10.6 3.1.1 0 .3.1h.1q.2 0 .3.1h.1c16.3 4.6 32.8 8.5 49.2 12.6 6.6 1.6 13.2 3.1 19.7 4.6 2.6.6 4.3 3.2 3.8 5.8-.2.8-.6 1.5-1.1 2.1q7.7-.1 15.4-.4 13.8-.6 27.6-1.4c6.2-.4 12.3-.9 18.4-1.1 3.9-.2 7.8 0 11.7-.3q.1.1.2 0 1.1-.1 2.1-.2c1.8-.4 3.6-1 5.4-1.4q1.4-.3 2.8-.5zM831.3 1913.4c-7.3-5.4-14.6-10.6-22-15.8-7.3-5.1-14.1-10.8-20.9-16.6-10.6-9.3-21-18.8-31.6-28.2-15.9-14.4-31.2-29.4-46.2-44.8l.6-3.8c1.3-6.6 4-13.1 7.4-18.9 2.1-3.6 4.5-6.9 7.2-10.1l-.8-2c-.2-.7-.5-1.4-.8-2.2v-.2q-.1-.2-.1-.4v.1c-3.4-9.5-6.4-19.4-7.2-29.5-.4-5.3-.3-10.6.3-15.9.5-5.3 2-10.6 4.1-15.6 1.9-4.6 4.7-9 8.6-12.3 4.2-3.5 8.8-6.1 13.8-8.2 4.8-2.1 9.9-3.5 14.9-4.7 5-1.2 10-2.1 15-2.9 20.7-3.5 41.5-6.4 62.2-9.4 20.9-3 41.8-5.9 62.7-8.5 21.5-2.7 43.1-5.4 64.6-8.4 10.3-1.4 20.5-2.8 30.8-4.2 3.7-.4 7.4-.9 11.1-1.3q.5 3.6 1.1 7.2 1.6 10.3 3.5 20.5.9 7.8 2.2 15.5c1.5 9.2 3.2 18.4 5.1 27.6q1 8.7 2.3 17.4.1.9.2 1.7v-.1.1q0 .1 0 0 0 .1 0 0l.6 3.4h-.1l.2.8q-.1-.2-.1-.3.3 1.5.5 3 .1.5.2.9 0-.1-.1-.2.1.1.1.2 0 .4.1.7l1.2 6.6q-1.2 2.2-2.5 4.4c-4.9 8.9-10.1 17.7-15.7 26.2-5.5 8.4-11.3 16.6-17.2 24.7-12.2 16.5-25.1 32.6-38.4 48.3-6.7 7.9-13.6 15.6-20.7 23.3-6.7 7.3-13.6 14.3-20.6 21.3-12.2 12.4-24.9 24.5-37.6 36.5-12.8-8.5-25.6-16.8-38-25.9z"/><path class="s0" d="M1040.7 1701.7q.2.5.3 1 .7 3.1 1.5 6.1c.3 1 .5 2.1.8 3.1q.1.5.3 1-1.1 2.1-2.2 4.3-.3-7.7-.7-15.5zM1029.4 1699.2h.7q.1 1.6.1 3.2l-.8-3.2zM1048.2 1698.2q.7 1.1 1.8 1.9l-1 1.8q-.4-1.8-.8-3.7z"/><path class="s7" d="M1190.8 1033.2q-2.7 3-5.3 5.9c-1.3 1.4-2.5 2.8-3.6 4.2-7.5 4.8-15.4 9-23.5 12.7-25.8 11.8-53.6 19.7-81.9 22.1-9.5.9-19.2 1.2-28.8 1.2q-10.4 0-20.8-.4-4-.2-8-.5-.4-3.5-.9-7.1c-3.4-23.5-9.2-47.2-20.5-68.3-13.1-24.1-33.7-43.1-55.6-59.2-24-17.8-50.4-32-75.7-47.7-10.8-6.8-21.4-13.9-31.3-21.9-2.7-2.2-5.3-4.5-7.8-6.9q1-13.5 1.6-27.1c.4-10.8.8-21.5 1.1-32.3q.1-2.8.2-5.7c-.1-2.3.1-4.8.2-7q.1-4.6.2-9.1.3-16.9.2-33.9c0-7.9 5.8-14.8 14-15.2 7.7-.3 15.2 6 15.2 14q0 17.3-.3 34.6 1 1.1 1.8 2.3v.1q1.6 1.1 3.3 2.2 4.4 2.7 9 4.9 10.2 4.4 20.7 7.8h.1c11.8 3.5 23.7 6.1 35.8 8.1 15.4 2.4 30.9 4.3 46.5 4.9 13.1.2 26.1-.7 39.2-2 10.6-1.2 21.1-3.2 31.6-5.4 9.4-1.9 18.9-4 28.2-6.3 10.4-2.6 20.9-5.4 30.9-9.1 3.1-1.3 6.1-2.6 9.1-4.2q.1 0 .2-.1c-2.5-13.8-4.8-27.5-7.2-41.3-1.4-7.8 4-15.5 11.8-16.9 7.8-1.4 15.6 4 16.9 11.9 8.2 46.7 16.5 93.5 27 139.8 1 4.7 2.1 9.3 3.2 13.9 4.6 18.6 9.7 37.2 15.3 55.5q-.3 2-.5 4c-.8 9.1-.6 18.2-.4 27.2.2 10 1.7 19.8 3.6 29.5 1.4 7 3.2 14 5.2 20.8z"/><path fill-rule="evenodd" class="s7" d="M2191.3 1534.1c3.6 2.3 4.8 6.9 4.8 11-.3 6.3-3 12.4-5.5 18.1-4.4 10-9.5 19.8-14.4 29.5-5.7 11.3-11.4 22.7-17.2 33.9-6.5 12.6-13.3 25-20.2 37.4-6.5 11.9-13.2 23.8-19.9 35.6-7.2 12.8-14.5 25.5-21.9 38.2-7.8 13.2-15.9 26.1-24.4 38.7-8.1 11.9-16.6 23.3-26.2 34-8.6 9.7-18.3 18.4-28.4 26.4q-7.7 6.1-15.9 11.5c-5.2 3.5-10.7 6.7-16.2 9.7-25.1 13.9-52.3 23.6-80.6 28.9q-9.6 1.8-19.4 2.8c-7.1.7-14.3.8-21.5.6-12.7-.4-25.4-2.2-37.8-4.6-6.4-1.2-12.6-2.6-19-3.7-3-.5-6-.9-9-1q-1.9 0-3.7.1-1.6.2-3.1.6-2.2.6-4.3 1.3-1.9.8-3.6 1.8-2.6 1.4-5 3.1c-4.5 3.3-8.7 6.9-13 10.5q-6.3 5.2-12.6 10.3c-9.2 7.5-18.7 14.8-28.4 21.8q-.1.2-.4.3v.1c-11.5 8.5-23.1 16.8-35.1 24.4-13.1 8.4-26.9 15.7-41.2 21.9-6.9 3-14.1 5.7-21.3 8-6.6 2.2-13.4 3.9-20.3 4.9q-4.9.8-9.8 1.2-4.7.4-9.4.4c-7.5 0-15.1-.8-22.5-2.4-5.8-1.4-11.6-3.3-17.2-5.5q-9.2-3.6-17.8-8.4c-5.4-2.9-10.4-6.4-15.2-10.2-2.3-1.8-4.5-3.7-6.6-5.7-2.8-2.6-5.3-5.6-7.7-8.5-8.7-10.5-14.7-22.9-18.6-35.9q-3-9.8-5-20c-1.5-7.5-2.4-15-2.9-22.6-1-13.3-.8-26.8.5-40.1 1.5-14.2 5.3-28.3 10.5-41.6 1.4-3.7 2.9-7.3 4.7-10.8 1.5-3 3.3-6 5.1-8.9 3.6-5.8 7.8-11.2 12.3-16.2 5.5-6 11.8-11.2 18.5-15.7 11.7-.1 23.4-.2 35.2-.2h22.6c13 .1 26.1.1 39.1 0q14.4-.2 28.8-.5 16.1-.3 32.3-.9c20-.7 39.9-1.4 59.9-1.7 19.3-.4 38.6-.5 58-.6q3.6 0 7.2-.1c17.6-.3 35.1-1.1 52.7-2.3 3.8-.3 7.7-.5 11.5-.7h2.6c1.9-.1 3.9-.1 5.8-.1h2.5q.3-.1.7-.1c.3-.4.7-.8 1.1-1.2l1-1.2 1.6-1.6q2.6-2.7 5.1-5.4 1.3-1.2 2.6-2.5-.3 0-.7.1 2.5-2.1 5-4.3 1-1.1 2-2.3c2.5-2.9 5.1-5.6 7.7-8.4 1.1-1.2 2.3-2.4 3.5-3.5 1.1-1.1 2.4-1.7 3.8-1.7 10.1-11.6 20.2-23.2 30.3-34.7 6.5-7.5 13.1-15.1 19.7-22.5 6.4-7.3 13-14.4 20-21.2 7-6.7 14.4-13.3 23.3-17.5 4.2-2 8.6-3.8 13.2-4.8 4.6-1.1 9.3-1.6 13.9-.4l1.2.4q-.1.5-.1 1c0 1.6 1.1 3.4 2.6 4.1q.2 0 .3.1.2.1.3.3c.6.4 1.1.9 1.6 1.4q1.2 1.3 2.3 2.7v.1l.1.1.2.2q1.4 2.1 2.7 4.3 1.1 2 1.9 4.2.1 0 .1.1.8 1.9 1.3 3.9.4 1.8.6 3.7.2 1.4.2 2.8v.1q-.1 1.6-.3 3.2c-.2 1.4-.6 2.8-1 4.1q-.4 1.5-1.1 2.9c-.5 1.2-1.1 2.4-1.8 3.5q0 .1-.1.1-1 1.6-2.1 3l-.1.1c-2.5 3-5.4 5.8-8.1 8.6q-5.6 6-10.7 12.4c-5.4 6.6-10.4 13.4-15.4 20.3-6.1 8.4-12 16.9-17.6 25.5-5 7.7-9.8 15.4-14.8 23.1-9.1 14.3-18.4 28.6-28.4 42.4-1.6 2.1-1 5.2 1.1 6.7.9.6 1.8.9 2.8.9 1.5 0 3.1-.7 4-2 3.9-5.3 7.6-10.7 11.3-16.2 10-14.8 19.5-30 29.1-45q8.5-13.2 17.7-26c5.7-8 11.6-16 17.7-23.7q.1 0 .2-.1 0-.1.1-.1 4.8-5.9 10-11.4c2.7-2.9 5.6-5.7 8.2-8.8 3.7-4.6 6.5-9.7 7.9-15.4.7-2.9 1.1-5.9 1.1-8.9s-.5-5.9-1.3-8.8c-1.4-5.3-3.9-10.4-7.1-14.8q-.2-.2-.3-.4c3.2-4.9 6.6-9.7 10-14.4 6-8.3 12.5-16.4 19.7-23.7 7-7.2 14.9-13.5 23.9-17.9 4.3-2.1 9-3.6 13.8-4.4 4.8-.7 9.9-.8 14.6.6 2.8.8 5.5 2.2 8.1 3.8 2.6-3.2 5.4-6.2 8.5-8.9 2.7-2.3 5.8-3.9 9.2-4.9q1.5-.5 3.1-.9.3-.1.5-.1c5.4-1.3 11.2-2.1 16.8-1.6 3.2.3 6.6 1 9.3 2.8zm-44.8 45.7c1.3-7 .7-14.1-1.4-20.9-.7-2.2-1.5-4.5-2.6-6.5-1.3-2.6-2.9-5.1-6.2-5.1-2.6 0-4.7 2.5-4.6 5 0 1.3.6 2.4 1.4 3.3l.6 1q.6 1.1 1.1 2.3 1 2.7 1.7 5.5.6 2.5.9 5 .1 1.9.1 3.9-.1 1.8-.3 3.7-.5 2.3-1.1 4.5v.1q-.8 2.5-1.8 5c-2.1 4.4-4.6 8.7-7.1 12.8-2.7 4.3-5.6 8.5-8.5 12.7-10.4 14.6-21.2 28.9-31.8 43.4-5.1 7-10.2 14-15.2 21.1-4.9 7-9.7 14.1-14.5 21.2-9.8 14.6-19.7 29.1-29.6 43.6-7.2 10.5-14.5 21.1-22 31.5q-3.7 5.1-7.5 10.1c-1.6 2.2-1 5.3 1.1 6.8.8.6 1.8.9 2.8.9 1.5 0 3-.7 4-2 5.6-7.5 11-15.1 16.4-22.7l8.8-12.6c9.7-14.1 19.3-28.3 28.9-42.4 5-7.4 9.9-14.8 14.9-22.1 4.9-7 9.9-14 14.9-21 10.5-14.4 21.2-28.7 31.6-43.1 5.4-7.4 10.7-14.9 15.5-22.8 4.1-6.9 8.1-14.2 9.5-22.2z"/><path class="s6" d="M747 1779.4q.5.4.9.9l-5 1.8c-12 4.3-24.4 7.9-36.8 10.7-12.7 2.9-25.5 5-38.4 6.5-12.8 1.5-25.8 2.2-38.7 2.8-12.8.5-25.6.7-38.4 1h-4.7c-.9 2.2-1.9 4.3-3 6.4-.8 1.6-2.5 2.4-4.2 2.4-.9 0-1.7-.2-2.5-.6-2.3-1.4-2.9-4.4-1.7-6.7q.2-.5.5-.9c1.1-2.4 2.2-4.8 3.1-7.3 1-2.8 1.7-5.7 2.4-8.6V1787.5c.9-4.4 1.5-8.8 1.9-13.2v-.1c.7-8.8.6-17.6.3-26.4q-.1-.3-.1-.7c-.9-19.9-3.1-39.8-5.2-59.7-2.2-20.4-4.6-40.7-7.4-61-2.3-16.9-5-33.7-7.4-50.6l-1.6.4q-12.6 3.1-25.3 6.4c-8 2.1-16 4.1-23.7 6.9-.8.3-1.5.5-2.2.9q0-.1.1-.1c-2.2 1-4.9.4-6.3-1.8-1.4-2.1-.8-5.3 1.5-6.7 1.7-.9 3.5-1.4 5.3-2.1 2.1-.7 4.3-1.4 6.5-2.1 4.3-1.2 8.7-2.4 13-3.5 9.3-2.5 18.6-4.8 27.8-7.1q1.8-.4 3.6-.9l-.2-1.4q-.7-5.1-1.4-10.3l-.6-4.8c-.2-1.6-.6-3.4-.1-4.9.9-3.2 5-4.8 7.7-2.5.9.7 1.4 1.7 1.8 2.8q.2.9.1 1.8c.2 1.9.5 3.9.7 5.8l1 7.4q.3 1.9.5 3.8c14.2-3.5 28.4-6.9 42.7-10.1 37.6-8.4 75.7-14.1 114-18.4q3.1-.4 6.2-.7-3.7 4.7-7 9.6c-5.1 7.6-9.5 15.6-13.6 23.8-4 8.4-7.5 16.9-10.5 25.7l-.2.4c-3.1 9.6-5.6 19.3-7.5 29.2 0 .1-.1.3-.1.5-1.6 8.6-2.8 17.4-3.4 26.2v.6c-.3 6.5 0 13.1.4 19.6.7 7.7 1.6 15.3 3.2 22.9q0 .1.1.2c1 4.6 2.2 9.1 3.8 13.5 2.4 6.6 5.3 13.1 8.5 19.4 1.9 3.4 3.7 6.8 5.7 10.2 1.9 3.4 4.1 6.6 6.3 9.9 5.3 7.7 11.2 14.9 17.4 21.9.3.4.7.8 1 1.2l9.2 10z"/><path d="M757.2 1792.6c.2 1.9-.4 3.8-1.7 5.1-1.4 1.5-3.2 2.1-5.2 2.4-2.8.4-5.6.6-8.4.8q-1 .1-2.1.2-.5 0-1.1.1h.4c-3.6.3-7.2.5-10.7.8-6.8.6-13.6 1.6-20.3 2.7q-13 2-26 4.8-1.7.3-3.5.7-.2 0-.4.1h-.3q-.1.1-.3.1c-18.2 4-36 9.1-53.8 14.7q-2.8.9-5.5 1.8-2.9 2.7-5.9 5.4c-4.8 4.3-9.8 8.5-14.9 12.6-5.9 4.6-11.9 8.9-17.9 13.2-29.6 21.2-59.9 41.2-91.5 59.2-17.1 9.7-34.4 19.4-52 28.3-18.7 9.6-37.8 18.1-57.2 26-18.4 7.5-36.9 14.5-55.7 20.7q-14.9 4.9-30 9.3c-9.3 2.8-18.7 5.3-28.3 7.4-17.2 3.7-34.7 5.7-52.3 6.3q-3.9.1-7.8.1c-6.4 0-12.8-.2-19.1-.9-9.5-.9-18.7-3.3-27.8-6.2-17.4-5.5-34.1-13.9-49-24.7-3.8-2.7-7.4-5.7-11-8.8-3.7-3.1-7.4-6.4-10.8-9.9-6.5-6.4-12.3-13.6-17.2-21.2-9.2-14.2-16-29.9-20.9-46.1-2.8-9.6-5.1-19.3-6.9-29.1-1.6-9.1-2.8-18.3-3.2-27.6-.3-9.5.1-19.1.9-28.6.8-8.6 2.1-17.2 3.7-25.7 1.7-9.5 3.9-18.8 6.3-28.2 2.3-9.3 4.8-18.7 7.4-28q8.2-29.7 18.2-58.9c6.1-18.1 12.8-36 19.6-53.9 13.7-35.8 27.7-71.5 42.1-107 7.5-18.4 15.1-36.8 23.1-54.9 7.9-17.8 16.2-35.4 24.7-52.9 8.3-17.1 17-34 25.8-50.8 9-17.2 18.2-34.3 27.6-51.3q14.4-25.7 29.5-50.9c10.3-17.1 20.8-34.1 31.9-50.6 10.9-16.2 22-32.3 33.7-47.9 11.2-14.9 22.9-29.3 34.9-43.5q8.1-9.7 16.4-19.3c11.2-12.8 22.6-25.3 34.7-37.4 12.1-12 24.7-23.5 38.6-33.5q1.7-1.2 3.4-2.3c8.1-5.6 16.8-10.9 26.3-13.7 2.1-.6 4.3-1.1 6.5-1.2 2.7 0 5.1 1 7.6 2.2 3.3 1.8 6.5 4 9.6 6.1 6.3 4.4 12.5 9.1 18.6 13.7q13.3 10.2 26.1 21c26.5 22.4 50.9 47.7 67.9 78.1 8.3 14.8 14.8 30.4 19.7 46.6 5.7 19.2 9 39 10.3 59 1.3 19.2.7 38.6-.7 57.8-1.3 19-3.8 38-6.6 56.9-2.9 19.9-6.7 39.6-11 59.2-2.1 9.7-4.5 19.4-7.1 29-2.5 9.5-5.4 18.9-8.3 28.4-6 18.8-12.9 37.2-21 55.2q-3.1 6.9-6.5 13.6 2.2.1 4.5.3c17.9.8 35.9.3 53.7-1.1h-.6c10-.8 19.9-1.9 29.8-3.2 9.2-1.1 18.4-2.5 27.6-3.8 8.2-1.2 16.6-2.3 24.7-4 2.7-.6 5.4-1.4 8.1-2.2.7-.3 1.5-.5 2.3-.5 2.4 0 4.7 1.8 5 4.2.4 2.7-1.3 4.3-3.1 5.9q-4.6 4.2-8.7 8.9c-3.4 3.9-6.5 8.2-9.4 12.5-5.1 7.6-9.5 15.6-13.6 23.8-4 8.4-7.5 16.9-10.5 25.7l-.2.4c-3.1 9.6-5.6 19.3-7.5 29.1 0 .2-.1.4-.1.6-1.6 8.6-2.8 17.4-3.4 26.2v.6c-.3 6.5-.1 13.1.4 19.6.7 7.7 1.6 15.3 3.2 22.9q0 .1.1.2c1 4.6 2.2 9.1 3.7 13.5 2.5 6.6 5.4 13.1 8.6 19.4 1.8 3.4 3.7 6.8 5.6 10.2 2 3.4 4.1 6.6 6.4 9.9 5.3 7.7 11.2 14.9 17.4 21.9.3.4.7.8 1 1.2l9.2 10q2.3 2.4 4.7 4.8c1.4 1.6 2.9 3.2 4.1 5.1.6 1 1.2 2.1 1.4 3.3z" style="fill:#397dff"/><path fill-rule="evenodd" class="s7" d="M1432.8 1568.6c.1 8.3-3.3 16.2-8.5 22.5-4.2 5.1-9.8 8.7-16.1 10.4-8.1 2.2-16.5.5-24.7.1q-.4-.1-.8 0c2 2.5 3.8 5.2 4.9 8.1 1 2.4 1.3 4.9.9 7.5-.3 1.8-.8 3.5-1.4 5.2-2.6 6.8-7.4 12.7-13.2 17q.1-.1.2-.1-.2.1-.3.2h-.1c-4.2 3-8.9 5-14 5.8q-2.5.3-5 .3c-5 0-9.9-1-14.6-2.5-8.3-2.8-15.9-7.9-22.9-13.1-7-5.2-13.6-11.1-20-17.1-7-6.5-13.8-13.3-20.5-20.2-9.5-6.4-19.1-12.8-28.9-18.8q-.1.2-.3.3c-1.5 1.5-3.7 2.4-5.6 3.5l-1.2.8q-.5.4-.9.9-.2.1-.3.3-.2.3-.4.7-.1.2-.2.3v.3l-.2.8v1.1q0 .6.1 1.1c.1 2-.6 4-2.3 5q1.1 1.3 2.3 2.6l.1.1c9.4 9.8 18.9 19.4 28.9 28.6 4.2 3.9 8.5 7.7 12.8 11.4 3.5 3.2 7.1 6.2 10.6 9.4 5.6 5.1 12 11.6 12.4 19.6q.1 1.3-.1 2.6.6 2.3.6 4.6c1.3-1.9 3.8-2.8 6-1.8 2.4 1.1 3.6 4.1 2.5 6.5-1.9 3.8-4.9 7-8.1 9.9-3.3 3-7 5.4-11.1 7.2-2.8 1.2-5.6 2.2-8.5 3.1-2 .7-4 1.4-6.1 1.8-1.7.4-3.5.6-5.2.8q-1 .1-2.1.1c-.9 0-1.8 0-2.7-.2q-1.9-.3-3.2-1.6c-.9-.9-1.4-2.1-1.4-3.4-4.5 0-8.9-1.3-13.1-2.9-3.4-1.2-6.6-3-9.6-4.9-3.7-2.3-7.2-4.8-10.7-7.4-6.7-5.2-13.2-10.8-19.6-16.4-13.9-12.2-27.4-24.7-40.9-37.4q-1.4 1.8-2.8 3.5-5.5 6.9-11.6 13.3c-3.6 3.8-7.4 7.5-11.4 10.8-4.9 4.1-10.4 7.3-16 10.2q-7.8 4.2-16 7.7-3.6 1.5-7.3 2.9-.2.1-.5.1 0 .1-.1.1h-.1q-3.8 1.5-7.7 2.8c-10.3 3.6-20.7 6.8-31.1 10-5.6 1.7-11.1 3.2-16.8 4.3-5.6 1.1-11.3 2-17 2.7-11.4 1.5-22.8 2.7-34.3 4-21.4 2.5-42.7 5.4-63.7 10.1-18.5 4.3-36.8 9.4-54.5 16-23.1 8.7-45.4 19.5-67.5 30.4-21.1 10.5-41.9 21.7-64 30.1q-.4-.5-.9-.9l-9.2-10c-.3-.4-.7-.8-1-1.2-6.2-7-12.1-14.2-17.4-21.9-2.2-3.3-4.4-6.5-6.3-9.9-2-3.4-3.8-6.8-5.7-10.2-3.2-6.3-6.1-12.8-8.5-19.4-1.6-4.4-2.8-8.9-3.8-13.5q-.1-.1-.1-.2c-1.6-7.6-2.5-15.2-3.2-22.9-.4-6.5-.7-13.1-.4-19.6v-.6c.6-8.8 1.8-17.6 3.4-26.2 0-.2.1-.4.1-.5 1.9-9.9 4.4-19.6 7.5-29.2l.2-.4c3-8.8 6.5-17.3 10.5-25.7 4.1-8.2 8.5-16.2 13.6-23.8q3.3-4.9 7-9.6c22.9-2.6 45.8-4.9 68.8-6.9h-.3c19-1.7 38-3.3 56.9-5 18.8-1.7 37.5-3.8 56.2-5.9 16.7-2 33.4-3.9 50.2-5.8 33-3.7 66-7.6 98.6-14q6.4-1.2 12.8-2.7c5.5-1.3 11-2.7 16.3-4.6 4-1.5 7.8-3.4 11.5-5.4 8-4.3 15.5-9.2 22.9-14.5 6.9-5 13.6-10.5 20.3-15.9 7.1-5.7 14.2-11.4 21.6-16.7 12-8.7 24.5-16.8 37.7-23.4 5-2.6 10.2-4.9 15.5-6.7 7.1-2.4 14.7-2.3 22-.9 8.9 1.7 17.6 4.6 25.9 8.2 9 3.9 17.7 8.6 26.1 13.6q12.3 7.5 24 15.9c6.8 5 13.5 10.3 20.2 15.5q10.7 8.4 21.3 16.9 1.1.9 2.2 1.9h.1l.4.4q.1 0 .1.1c.9.6 1.7 1.4 2.5 2l4.4 3.6q5 4.1 9.8 8.2c6.5 5.6 12.9 11.4 19.1 17.3 5.2 5 10.2 10.2 14.5 15.9 3.8 5 7.1 10.3 9.9 15.8 2.3 4.5 4.3 9.2 5.6 14.1 1.2 4.2 2 8.7 2 13zm-198.5 2.6q-.4-.1-.7-.2-4.7-1.4-9.4-3.1.4.3.7.6 3.2 3 6.3 6.2c.8-1.3 1.9-2.5 3.1-3.5z"/><path class="s0" d="M587.7 1535.2c-2.4-1-3.7-4-2.5-6.4 7.3-15.9 13.7-32.2 20.2-48.5 4.8-12 9.8-23.9 14.1-36.1 5.2-15 9.4-30.2 12.7-45.8-.1.2-.1.3-.1.4 3.8-18.3 6.6-36.8 8.1-55.5v.1-.4q.1-.7.1-1.4v.3c.8-9.9 1.3-19.8 1.4-29.7.2-10.2 0-20.4-.2-30.7-.4-13.9-.9-27.9-1.6-41.8q0-1-.1-1.9.1.3.1.6c-.8-16.6-2.2-33-5-49.4v.1l-.2-1.6v.3c-2.7-15-6.1-29.9-10.5-44.5-2.7-8.2-5.7-16.3-9.2-24.2v.1q0-.1-.1-.2v-.1l-.1-.1q-5.2-11.1-11.7-21.5c-4.5-6.9-9.3-13.7-14.6-20q.2.2.4.5-7.1-8.3-15.2-15.7.2.2.5.4c-11.2-10-23.1-19.3-35.5-27.9q-.1-.1-.2-.1h-.1c-.9-.7-1.8-1.3-2.7-1.8-1.8-.6-3.1-2.1-3.4-4.1-.3-2.5 1.7-5.1 4.3-5.3 2.3-.2 4.2 1.1 6 2.3 1.9 1.2 3.7 2.5 5.5 3.8 3.7 2.5 7.3 5.2 10.8 7.9 8 6.1 15.8 12.5 23.1 19.3 15.3 14 27.8 31.1 37.3 49.5 10 19.1 16.5 39.7 21.1 60.7q2.2 9.8 3.9 19.6 0-.3-.1-.6.2 1 .3 1.9 0-.3-.1-.6c3 16.9 4.4 34 5.2 51.1v1c1 20.4 1.6 40.8 1.9 61.2.2 14.5-.4 28.9-1.6 43.4q0-.4.1-.7-.1.7-.1 1.4v-.6c-1.6 20-4.6 39.8-8.9 59.4-2 9.5-4.4 18.9-7.1 28.1-2.8 9.4-6 18.6-9.5 27.7-3 7.8-6.2 15.5-9.3 23.2-3.2 7.9-6.3 15.8-9.6 23.7-3.6 8.9-7.3 17.9-11.4 26.6-.8 1.8-2.6 3-4.5 3q-.9 0-1.9-.4z"/><path class="s0" d="M639.9 1239.7q0 .3.1.6-.1-.3-.1-.6zM400.9 1493.4q-.9-1.3-1.9-2.6.2.3.4.5c-1.1-1.3-2.3-2.5-3.6-3.7-1.4-1.2-3-2.4-4.6-3.5-2.1-1.5-4.4-2.7-6.7-3.9q-4.3-2.2-9-3.8c-5-1.7-10.1-3-15.3-4.1-8.6-1.8-17.2-2.9-25.9-3.7q.2.1.4.1c-10.2-.8-20.4-.8-30.5-.4h.6q-4.2.2-8.3.5c-2.1.1-4.3.2-6.4.6q-.3 0-.6.1.2 0 .3-.1h-.1c-1.7.6-3.6.3-5-1.2-1.8-1.8-1.9-5 .1-6.8 1.2-1.1 2.6-1.4 4.1-1.7 1.6-.3 3.4-.3 5.1-.5q7.1-.5 14.2-.7c9.4-.3 18.8-.2 28.3.6 8.8.7 17.6 2 26.3 3.8 7.5 1.6 14.9 3.6 22 6.7 8.9 3.9 17.9 9.4 23.6 17.6q.2.2.4.5c1.5 2.2 1.1 5.2-1 6.8-.9.6-1.9.9-2.9.9-1.5 0-3-.6-4-2z"/><path class="s0" d="M226.4 1564.4c-1.9-1.9-1.8-5 .1-6.9.9-.8 2-1.4 3-2 1.7-1 3.4-1.9 5.2-2.8q5.5-2.7 11.1-5.3.3-.2.7-.3.2-.1.5-.3h.1-.1q27.6-12.8 55.9-24 13.9-5.6 28.1-10.3c9.1-3.1 18.4-5.8 27.7-8.5 16.7-4.9 33.7-9.5 50.8-12.6 12.5-2.3 25.1-4.2 37.8-5 16.7-1 33.5.2 50.1 1.7 8.7.9 17.3 1.8 26 3.2 7.5 1.1 15 2.6 22.3 4.7 6.1 1.9 12 4.2 17.6 7.2 4.5 2.4 8.6 5.5 12.2 9.1 4.7 4.8 8.7 10.3 12.3 15.9 1.6 2.5 3.2 5.1 4.6 7.7 1.3 2.4.4 5.4-1.9 6.7-2.3 1.2-5.3.3-6.6-2-1.3-2.4-2.7-4.7-4.1-6.9q-.2-.4-.5-.7.1.2.3.3c-2.4-3.6-4.9-7.2-7.6-10.5l.4.6q-2.7-3.3-5.8-6.2-.2-.1-.3-.3h-.1q-1.6-1.4-3.4-2.7c-1.7-1.2-3.5-2.2-5.3-3.1q-5-2.5-10.2-4.3h.1-.1l-.4-.2q.1.1.2.1c-4.5-1.6-9.1-2.7-13.8-3.7h.1c-14.7-3.1-29.7-4.7-44.6-5.9q.3.1.6.1c-13-1.1-26.2-1.8-39.3-1.2h.6c-12.4.5-24.8 2.4-37.1 4.6q.3-.1.6-.1c-17.1 3-33.9 7.4-50.5 12.2-6.9 1.9-13.7 3.9-20.4 6-9.1 2.9-18.2 6-27.3 9.4-9.1 3.5-18.2 7.2-27.3 11-12.6 5.2-25 10.7-37.4 16.4q-.3.2-.6.3h.1q-.3.1-.5.2l-.1.1q-.2.1-.5.2-4.4 2-8.7 4.1c-2.5 1.3-5.1 2.5-7.5 4q-.2.2-.5.4c-.9.7-2 1.1-3.1 1.1-1.3 0-2.6-.5-3.5-1.5z"/><path class="s0" d="M608.1 1822.9c-3.8-.2-7.6-.9-11.3-2.1-4.5-1.4-8.9-3.4-12.9-6-4-2.5-7.4-5.7-10.5-9.1-2.9-3.1-5.6-6.4-8-9.9-2.4-3.6-4.5-7.4-6.4-11.2-1.9-3.9-3.7-7.8-5.3-11.8-1.7-4.3-3-8.6-4.3-13-2.8-9.4-4.8-19-6.3-28.7-.8-5.3-1.5-10.5-1.9-15.8-.4-4.8-.5-9.7-.5-14.5 0-9.9.9-19.7 2.2-29.5 2.3-18.2 5.4-36.4 9.4-54.3 2-8.8 4.4-17.4 7.4-25.9 1.4-4 3.1-8 4.7-12q2.5-6.3 5.3-12.6c4.1-9.4 9-18.4 14.5-27.1q1.3-2 2.7-4c1.4-2.2 4.5-2.9 6.7-1.4s2.8 4.6 1.3 6.8c-2.5 3.8-5 7.7-7.3 11.7l.1-.1c-5.3 9.2-9.6 18.7-13.6 28.5q.2-.3.3-.6c-2.1 5-4.2 10.1-6 15.2-1.8 5.3-3.4 10.7-4.8 16.1l.2-.6c-4.6 18-7.7 36.3-10.3 54.6q-.8 5.3-1.5 10.7v-.1V1676.8v-.1c-.6 4.8-1.1 9.6-1.3 14.3-.3 4.8-.4 9.6-.3 14.3v-.6c.1 7.2.8 14.4 1.8 21.6q0-.3-.1-.6c1.4 9.2 3 18.4 5.5 27.4q-.1-.2-.2-.5 1.5 5.3 3.2 10.6c1.1 3.3 2.4 6.6 3.7 9.8l-.2-.6c2 4.8 4.3 9.6 6.9 14.1q0-.1-.1-.1c1.5 2.4 3.1 4.7 4.8 6.9q-.1 0-.2-.2.1.2.3.4 0 .1.1.1h-.1c2.2 2.8 4.6 5.4 7 7.9q2 1.9 4.1 3.6-.3-.2-.5-.4 2.2 1.7 4.5 3c2 1.1 4 2 6 2.8q-.3-.1-.6-.3 2.7 1.2 5.6 2c1.7.4 3.4.7 5.1.9h.2q.1.1.3.1-.2-.1-.3-.1c1.9.2 3.9.3 5.9.3q.8 0 1.5-.1.8-.1 1.5-.4.6-.1 1.2-.4.5-.2 1-.5.1-.1.2-.1l.1-.1.1-.1c1.7-2.1 5-2.2 6.9-.5 2 1.8 2.1 4.6.6 6.7h-.1v.1l-.1.1.1-.1c-2.3 2.7-5.9 4.2-9.3 4.8-1.5.2-3 .3-4.5.3q-2.1 0-4.2-.2z"/><path class="s0" d="M586.4 1538.8c-2.2-1.7-2.5-4.7-.9-6.9 1-1.4 2.8-1.9 4.5-2.2 1.9-.3 3.8-.3 5.7-.3q2.4-.1 4.8-.1c-1.7 2.2-2.9 4.7-3.8 7.4q.2-.7.4-1.3l-.6 1.8q0 .1-.1.2 0 .2-.1.3.1-.1.1-.3h.1q-.3.8-.6 1.7-1.7.1-3.5.2-.6 0-1.1.1-1 .3-1.9.3c-1.1 0-2.2-.3-3-.9z"/><path class="s0" d="M597.5 1535.7q-.1.1-.1.2.1-.4.3-.9-.2.6-.3 1 0-.1.1-.3zM1357 1650.7c-6.9-.2-13.4-3.3-19.3-6.5-7-3.9-13.4-8.8-19.7-13.8-6.4-5.2-12.6-10.7-18.6-16.4q-5.2-4.9-10.3-9.9c-2.7-2.6-5.3-5.3-8-7.8q-3.4-3-7.1-5.6v-.1q-.2-.1-.3-.1.1 0 .2.1-2.9-2-6-3.6.3.1.6.3c-2.1-1.1-4.3-2-6.6-2.8q-3-1.1-6.2-1.8-3.5-.7-7.1-1-3.8-.3-7.6-.1h.6q-2.6.1-5.2.5c-2.6.4-5.1-1.6-5.4-4.2-.4-2.7 1.6-5 4.2-5.4 5.1-.8 10.4-.9 15.5-.4 7.1.7 14.3 2.6 20.8 5.8 6.5 3.2 12.4 7.7 17.7 12.7 6.3 5.9 12.3 12.1 18.5 17.9l2.2 2c8.2 7.5 16.7 14.6 25.8 21.1h.1q.2.2.4.3-.1-.1-.2-.1c2.6 1.8 5.4 3.4 8.3 4.9 2 1 4 2 6.1 2.8q1.8.6 3.6 1 1.3.3 2.6.4 1 .1 2 0 1.1-.1 2.2-.3 1.3-.2 2.6-.6 2-.7 3.9-1.6-.3.1-.6.3c2.1-1 4.1-2.2 6.1-3.5q3.2-2.1 6.1-4.6c2.3-1.9 4.4-3.8 6.4-6q.9-1 1.7-2.1l.8-1.2v-.2q-.3-.6-.6-1.1c-1.3-1.8-2.7-3.5-4.1-5.2q-2.3-2.9-4.7-5.7c-3.9-4.5-7.8-8.9-11.7-13.5-5.6-6.5-11.1-13.3-16.7-19.9q-10.3-12.4-20.7-24.8 0 .1.1.1c-12.8-14.9-25.9-29.6-40.4-42.9q-.6-.7-1.3-1.2c-6-5.5-12.3-10.7-19-15.4v-.1h-.1q-.1-.1-.3-.2.1 0 .1.1c-4.2-2.9-8.5-5.6-13-8q.3.2.6.3c-3.6-1.9-7.3-3.5-11.2-5-3.1-1-6.3-1.9-9.6-2.6h-.4.1q-.2-.1-.5-.1h.3-.3c-3.2-.7-6.4-1.1-9.6-1.4q.3.1.7.1c-4.3-.3-8.6-.4-12.9-.4q-3.4 0-6.9.1c-1 0-2.1.1-3.2 0-2.6-.3-4.5-2.9-4.1-5.5.4-2.6 2.7-4.3 5.2-4.1q-.2-.1-.3-.1c1.7.1 3.4 0 5.2-.1q4.6-.1 9.3 0c6.1.1 12.3.5 18.4 1.8h-.2q.4.1.9.2-.1 0-.2-.1c5 1.1 9.8 2.4 14.6 4.3 4.7 1.8 9.2 4.2 13.6 6.7 8.4 4.9 16.3 10.9 23.7 17.2 14.8 12.8 28.2 27.1 41 41.8 12.3 14.2 24.2 28.7 36.3 43.1q3 3.7 6.1 7.3c4.5 5.4 9.2 10.6 13.8 16l-.1-.1q3.6 4.2 7.1 8.6c1.5 1.9 3 3.9 4 6.2q.9 1.9.9 3.9c.1 1.8-.8 3.6-1.7 5.1-1 1.8-2.3 3.3-3.7 4.8-1.9 2.1-3.9 4-6.1 5.9-4.3 3.7-8.9 7.1-14.1 9.6-4.6 2.3-9.5 3.9-14.7 3.9h-.4z"/><path class="s0" d="M1269.9 1700.2c-6.9-1.6-13.4-4.5-19.6-8-8.5-4.8-16.3-10.7-23.8-16.9-7.3-6.1-14.2-12.6-21.1-19.3l-18.1-17.7c-4.7-4.7-9.5-9.3-14.4-13.8h.1c-3.9-3.5-7.8-6.9-12.1-9.9h.1-.2q0-.1-.2-.2h.1q-.1 0-.2-.1c-2.2-1.5-3.1-4.3-1.7-6.7 1.4-2.1 4.5-3.1 6.7-1.6 4.6 3.1 8.8 6.6 12.9 10.3 5.1 4.5 9.9 9.3 14.8 14.1 4.6 4.5 9.2 9.1 13.9 13.6 5.3 5.2 10.6 10.5 16.1 15.5v.1h.1c7.1 6.5 14.5 12.6 22.4 18.1 4.1 2.9 8.4 5.6 12.8 7.9q-.2-.1-.5-.3c2.7 1.4 5.5 2.7 8.4 3.7 2.3.8 4.7 1.5 7 2q-.3-.1-.6-.1l2.6.4q1.4.1 2.8.1 1.6-.1 3.2-.4 1.5-.3 3-.8.2-.1.4-.1 1.8-.7 3.5-1.5c1.4-.7 2.7-1.4 3.9-2.2q2.5-1.7 4.8-3.7.1 0 0 0c1.8-1.5 3.6-3.1 5.2-4.8q-.3.2-.5.5 1.4-1.5 2.6-3.2l.8-1.2q.3-.6.5-1.2.2-.5.3-1 0-.3.1-.6v-.6q-.1-.3-.1-.6v-.1l-.1-.1q-.1-.3-.3-.5-.2-.4-.5-.7l-1.4-1.4c-3.5-3.2-7.3-6.2-10.9-9.5l.1.1c-10.4-9.4-20.2-19.4-29.3-30.1-11.2-13.3-20.4-28.1-29.5-42.9-4.9-8.1-9.9-16.1-15-24v.1c-3.5-5.3-7.3-10.4-11.4-15.3q-.4-.3-.7-.8c-4.5-5.2-9.5-10-14.6-14.7-6.5-5.8-13.2-11.4-20.3-16.5h-.1q-.2-.2-.4-.3c-4.2-2.9-8.6-5.5-13.2-7.9q.3.1.6.3c-4.7-2.5-9.6-4.7-14.7-6.5q.2.1.3.1-.4-.1-.8-.3c-3-1-6-2-9.1-2.6q.3 0 .6.1-.3-.1-.6-.1c-1.3-.3-2.5-.5-3.7-.6-2.1-.1-4.1-1.6-4.6-3.7-.7-2.6.9-5.2 3.4-5.9 1.1-.3 2.1-.1 3.1 0 1.2.2 2.4.4 3.5.6 3.7.8 7.3 1.9 10.8 3.1l-.6-.2c4.9 1.8 9.7 3.8 14.4 6.1 4.5 2.2 8.9 4.8 13.1 7.5 8.2 5.3 15.9 11.6 23.1 18.1 6.2 5.6 12.3 11.4 17.7 17.8q0-.1-.1-.1c2.8 3.3 5.5 6.6 8.1 10.1 2.3 3.3 4.5 6.6 6.6 9.9q7 11 13.8 22.1c3.2 5.3 6.6 10.7 10 16q-.2-.3-.3-.5c2.9 4.4 5.8 8.8 8.9 13.1 3.2 4.4 6.6 8.6 10.1 12.7q-.1 0-.1-.1c8.5 9.9 17.7 19.2 27.4 28.1l.4.4c2.7 2.4 5.6 4.8 8.4 7.2 2.7 2.3 5.2 4.6 6.8 7.9q-.2-.3-.3-.6c2.2 4.5 1.2 9.6-1.2 13.8-2.5 4.5-6.6 8.1-10.4 11.3-4.7 4-9.9 7.1-15.7 9-2.4.8-4.8 1.3-7.4 1.5q-1.1.1-2.2.1c-2.6 0-5.1-.3-7.7-.9zM589 1539.3c-2.6-.2-4.6-2.6-4.5-5.2.1-2.1 1.5-3.8 3.3-4.8 1.7-.9 3.9-1.1 5.8-1.4 4.5-.8 9.1-1.3 13.6-1.8 10.1-1.1 20.3-1.7 30.5-2.4 10.9-.9 21.9-1.8 32.8-3 4.6-.4 9.2-.9 13.7-1.5h-.3c8.7-1.2 17.3-2.8 25.9-4.1 4.6-.8 9.2-1.5 13.7-2.1q-.3 0-.6.1c3.3-.5 6.7-.8 10-1 4.4-.2 8.8-.2 13.1.6 4.2.8 8.2 2.6 11.4 5.5 2.3 2 4.4 4.7 5.3 7.7.7 2.5-.5 5.3-3.1 6.2-2.4.8-5.4-.6-6.1-3.1q-.1-.3-.2-.5-.1-.3-.3-.6-.2-.3-.5-.7-.4-.6-.9-1.1-.6-.6-1.2-1.1-.8-.6-1.6-1.1l-1.6-.8.4.2-.4-.2q-.1 0-.2-.1l.1.1q-.7-.3-1.5-.5-1.5-.4-2.9-.6h.1H742.5h.1c-1.8-.2-3.7-.3-5.5-.3-4.3 0-8.6.4-12.8 1q.3-.1.6-.1-.5.1-1 .1.3 0 .6-.1c-7.2 1-14.4 2.2-21.5 3.4-4.6.8-9.1 1.6-13.7 2.3-5.7.8-11.4 1.4-17.1 2-11.1 1.2-22.1 2.1-33.1 3-10.2.8-20.4 1.4-30.5 2.5l-9.2 1h.1c-2.3.3-4.6.6-6.8 1.1-.9.9-2.1 1.4-3.4 1.4h-.3z"/><path class="s0" d="M756.6 1796.8c-4.1 0-7.8-2.3-10.7-5-2.8-2.5-5.3-5.4-7.7-8.2-2.8-3.3-5.4-6.6-8.1-10-3.8-4.8-7.6-9.6-11.2-14.6-5.2-7.3-10.3-14.7-15-22.3-4.8-7.9-9.2-16.1-12-24.9-2.6-7.8-4.4-15.7-5.7-23.8-1.7-9.8-2.8-19.7-2.9-29.7 0-7.6.8-15.3 2-22.8 1.1-7.5 2.4-15.1 4.4-22.5l-.2.6c4.4-16.9 10.2-33.5 18.4-49 4-7.6 8.6-14.9 13.5-21.9 4.6-6.4 9.3-12.8 14.7-18.5 2.7-3 5.6-5.7 8.6-8.5 1.4-2.1 4.5-2.5 6.6-1.1 2.3 1.5 2.6 4.4 1.3 6.7q-.3.5-.6.8-1.2 1.1-2.3 2.2-1.7 1.6-3.4 3.3c-4 4-7.7 8.4-11.1 12.9l.4-.6c-5.9 7.7-11.5 15.8-16.3 24.2l.2-.4c-3.9 6.9-7.4 13.9-10.4 21.2q0-.1.1-.2c-4.1 10.1-7.5 20.5-10.2 31v-.1.2-.2q-.1.3-.1.5v.1-.1c-1.1 4.5-2 9-2.7 13.5-.8 4.4-1.6 8.8-2.1 13.3-.7 5.1-1 10.3-1 15.5q.1 9.5 1.3 19c1.1 8.2 2.6 16.4 4.7 24.5q-.1-.2-.2-.5c1.2 4.3 2.5 8.6 4.2 12.8 1.7 4.1 3.8 8.2 6 12.1q-.2-.3-.3-.6c6.4 11.3 13.8 22.2 21.7 32.5q-.2-.1-.3-.3c5.6 7.3 11.2 14.7 17.3 21.6q1.8 2 3.6 3.9l2.7 2.4q.6.4 1.1.7-.1-.1-.3-.2.2.1.3.2.2.1.3.1-.1 0-.3-.1.3.2.6.3l.6.2q.3.1.5.1h.5l.1-.1q.1-.3.3-.6.1-.3.2-.7.1-.4.1-.9v.3q0-.2.1-.3v-.3.2-1.7q0-2.3-.3-4.7c-.2-2.6 2-5 4.6-5.1 2.7-.2 4.9 1.8 5.1 4.5.5 3.8.7 8-.6 11.7-.8 2.4-2.2 4.3-4.2 5.8-1.6 1.2-3.6 1.6-5.6 1.6h-.3z"/><path class="s7" d="M1210.5 563.7c3.9 22.9 5.9 46.1 4.6 69.3-.6 11.7-2 23.4-4.2 35-1 5.4-2.2 10.8-3.7 16.1-1.5 5.7-3.2 11.3-5.4 16.7-4.2 10.1-9.4 19.6-16 28.3l-.2.2q-.1.1-.2.3l-.8 1c-14 18-31.6 33.3-51.9 43.7-3.1 1.6-6.3 3.2-9.5 4.6h-.2c-5.4 2.4-10.9 4.5-16.6 6.4-5.6 1.8-11.4 3.3-17.2 4.7-5.5 1.2-11.2 2-16.8 2.8-5.5.7-11.1 1.2-16.6 1.3q-3.2.1-6.4.1-4.1 0-8.3-.2c-4.9-.2-9.7-.7-14.6-1.2-4.5-.6-9.1-1.3-13.6-2.1-4.6-.9-9.3-1.8-13.9-3q-.4-.1-.9-.3l-.8-.2h-.2q-.2-.1-.5-.2l-.8-.2c-10.8-3-21.3-7.2-31.4-12.2-4.9-2.3-9.7-5-14.3-7.9-5-3.1-9.8-6.2-14.5-9.7-9.3-6.8-18.1-14.2-26.6-22-8.4-7.8-16.6-15.7-24.9-23.5-9-8.5-18.2-16.9-28-24.5-7.4-5.8-15.1-11.2-22.7-16.7l-8.2-5.8c3.2 7.2 6.5 14.4 10 21.5 4.3 8.6 9 17 13.8 25.4q.1.2.3.4l.8 1.4q3.4 5.9 7.1 11.8c2.3 3.7 4.7 7.4 7.4 10.8q.9 1.2 1.9 2.3.5.4.9.8c1.2.3 2.3 1 2.9 2 1.6 2.3.8 5.1-1.3 6.8-.8.6-1.8.9-2.8.9-1 0-2-.3-2.9-.7-1.8-.9-3.3-2.6-4.7-4-2.3-2.5-4.2-5.3-6.1-8.1-3.8-6-7.5-12.1-11.2-18.3q-.1-.3-.3-.6c-10.6-17.9-19.7-36.5-27.7-55.6q-.2-.3-.4-.7c-3.5.6-7.1 1-10.7 1.2q-3.6.2-7.3.2c-6.7 0-13.3-.5-19.9-1.2-9.3-.9-18.5-2.2-27.3-5.1-4.5-1.5-8.9-3.5-12.9-6-4.1-2.4-7.9-5.4-11.6-8.5-4.7-3.8-9.1-8.1-13.4-12.4-6.8-6.8-13-14.2-18.4-22.1-5.5-8.4-10.1-17.6-12.5-27.3q-.7-2.6-1.1-5.3c-.7-5.3-.9-10.6-.2-15.9.7-4.8 2-9.6 4.1-14q3.1-6.4 7.8-11.8c3.2-3.7 7.2-6.9 11.3-9.5 4.1-2.7 8.9-4.7 13.7-6.2 5.2-1.6 10.5-2.5 15.9-2.9 10.3-.7 20.6.9 30.4 3.7q2 .6 3.9 1.3-4.7-18.3-8.1-36.9c-1.8-10.4-3.2-20.8-4.3-31.4-1-10.2-1.6-20.6-1.6-31 0-8.6.2-17.3 1.4-25.9.7-5.5 1.5-10.9 2.6-16.2 1.1-5.2 2.6-10.3 4.2-15.3 1.6-4.8 3.6-9.6 5.8-14.2 2.4-4.7 5-9.4 7.9-13.8 6-8.7 12.7-16.8 20.6-23.8 7.4-6.7 15.5-12.7 24.1-17.8q1.5-.8 2.9-1.7c9.1-5.4 18.8-9.7 28.6-13.7 8.3-3.4 16.9-6.4 25.6-8.9-9.6-3.4-18.9-7.4-28.1-11.6q-3.7-1.7-7.4-3.5-1.8-.9-3.7-1.9c-.8-.4-1.6-.8-2.4-1.3-1.8-1.1-2.5-3.6-1.8-5.6.7-2 2.7-3.4 4.9-3.3.7.1 1.4.3 1.9.6 1.7.7 3.2 1.6 4.8 2.4q3.4 1.7 6.8 3.3 6.8 3.2 13.8 6.1c9.3 3.9 18.8 7.2 28.4 10.1 15.5-3.8 31.2-6.5 47.1-8.1 19.8-2 39.8-1.9 59.7-2.2 20.1-.2 40.3-.9 60.4-1.3 8.2-.1 16.3-.2 24.5-.1 2.6 0 4.7 2.6 4.5 5.1-.2 2.8-2.5 4.6-5.1 4.6h-7.7c-20.2.1-40.4.8-60.6 1.2-19.6.4-39.3.2-58.9 1.1-9.3.5-18.5 1.5-27.7 2.6q-7.6 1.1-15.2 2.6c14.9 3.4 29.9 5.9 45.1 7.9 11.3 1.4 22.5 2.6 33.8 3.4 11.5.9 22.9 1.4 34.4 1.7 7.9.2 15.8.2 23.6.2h1.1c22.2-.2 44.4-1 66.6-2 10.1-.5 20.3-1 30.5-1.4q3.2-.2 6.3-.3c1.9 0 3.8-.1 5.6.1 2.5.2 4.8 1 6.8 2.3 2.1 1.4 3.7 3.4 5.1 5.4 2.5 3.3 4.1 7.1 5.2 11.1 1.2 4.4 1.4 9.1 1.7 13.7.7 10.4 1 20.9 1.2 31.3q.1 4.9.1 9.8c.1 11.6-.1 23.2 0 34.8q-.1-.1-.1-.3c.1 16.6.8 33.3 3 49.8 3.2 21.4 9 42.2 14.2 63.2 2.6 10.5 5.1 21 7.3 31.6 2.3 10.8 4.6 21.6 6.4 32.4z"/><path fill-rule="evenodd" class="s0" d="M1259.6 678.1c.3 3 .2 6.1.2 9.1-.1 3.4-.2 6.8-.6 10.3-1.7 13.8-3.8 27.8-9.5 40.8-2.7 6.3-5.7 12.6-9.4 18.5q-2.6 4-5.4 7.9c1.3 4.2 2.3 8.5 3 12.8.9 6.9 1.4 13.9.8 20.7-.4 4.8-1.7 9.5-3.2 14.1-1.9 6-4.5 11.8-7.3 17.5-2.8 5.7-5.9 11.1-9.7 16.1-4.1 5.5-8.7 10.8-13.4 16-9.1 10.2-19.3 19.5-30.2 27.8-12.9 9.6-26.5 18.4-41.2 24.9-13.3 5.8-27.6 9.9-41.9 12.3-11 1.8-22 2.8-33.1 2.8q-6.2 0-12.4-.5c-6.5-.4-12.8-1.4-19.2-2.4-6.9-1.1-13.8-2.5-20.6-4-11.9-2.7-23.7-5.9-35.4-9.4-14.7-4.5-29-9.7-42.9-16.2-13-6-25.4-13.8-36.8-22.4-12.1-9.3-23.3-19.6-33.7-30.7l-.2-.2c-9.2-9.8-17.6-20.3-25.5-31.2-5.9-8.1-11.3-16.5-16.1-25.3-6.8-12.7-12-26.2-15.4-40.2-3.3-14-4.4-28.3-3.8-42.6.4-12.8 2.3-25.4 4.5-38 2.3-12.8 5.3-25.5 7.4-38.3.8-5.3 1.4-10.7 1.5-16 .1-5 0-9.9-.5-14.8-.5-3.4-1-6.8-1.8-10.1q-1.1-4.4-2.7-8.7c-1.7-4.2-3.7-8.2-5.8-12.1l-.2-.4c-2.1-3.7-4.2-7.2-6.6-10.6l-.1-.1c-3.1-4.3-6.4-8.4-10-12.2v-.1c-3.1-3.1-6.2-6.1-9.6-8.9l-.1-.1c-3.1-2.4-6.3-4.8-9.6-6.9q-1.6-1-3.1-1.9l-.1.1q-1.2.3-2.3.3c-1.8 0-3.5-.5-5-1.3-3.5-2.1-6-5.4-8-8.9-4-6.6-6.6-13.9-8.3-21.4-.7-2.8-1-5.6-1.3-8.4-.3-3.5-.2-7 .2-10.6-1.8-2.4-3.5-4.9-5.1-7.5-8-12.9-13.7-27.3-17.2-42-3.3-13.5-4.1-27.6-3.2-41.4.9-12.9 4.3-25.4 9.5-37.2-4.4-13.3-8.1-26.8-10.9-40.6-1.4-7.2-2.3-14.5-2.9-21.7-.6-7.5-.5-14.9.3-22.3.9-7.7 3.9-14.7 7.7-21.3 3.8-6.7 8.5-12.9 13.9-18.4 10.7-10.8 24.6-17.6 39.6-19.4 6.3-.7 12.7-.8 19-.4q1.1-2.8 2.2-5.7-1.3-1.2-2.7-2.3c-1.5-1.3-3.1-2.5-4.7-3.5-1.1-.7-2.1-1.3-3.2-1.8q-1.8.5-3.7.9c-4.7 1-9.6 1.3-14.2 0h.4c-3.4-.7-5.9-3.3-6.1-6.8-.1-3.9 3-7.6 7-7.6h1c.6.1 1.1.2 1.6.4l-.1-.1q.4.2.9.3.9.1 1.8.1h1.6q2.4-.4 4.8-.9 1.2-.4 2.4-.7l.1-.1q.5-.2 1-.3c3.1-1.3 6.2-2.8 9.2-4.4 11.9-6.5 22.8-14.9 35.3-20.2 7.4-3.1 15.1-4.7 23.1-3.7 7.8.9 14.9 4.7 20.7 9.8 4.8 4.2 8.5 10.1 10.9 16 2.6 6.2 4.4 12.6 5.9 19.1 14.4-9.7 29.5-18.4 45.3-25.7 13.7-6.3 27.7-12.1 42.1-16.5 14.5-4.4 29.5-7.8 44.6-9.5 15.2-1.7 30.5-1.1 45.7.5 15 1.7 30.1 4.2 44.6 8.6 7 2.1 13.9 4.4 20.6 7.4 6.6 3 13.1 6.3 19.4 10 12.3 7.3 23.6 16.2 33.8 26.3 5.6 5.5 10.8 11.4 15.5 17.8q6.4 8.8 11.6 18.4c6.4 12 11.5 25 11.9 38.7.3 7-.2 13.9-1.4 20.7-1.1 6.2-3.7 11.9-7.2 17.1-8.2 12.2-21.9 19.6-36 22.8-5.6 1.4-11.3 1.9-17.1 1.9-6.9 0-13.9-.8-20.7-2.4-5.5 4.3-11.3 8.3-17.2 12q-2.6 2.1-5.5 4c-9.1 6-18.9 11.5-29.6 14.2-5.9 1.5-12 2.4-18.1 2.4h-1.4q-1.4-.1-2.9-.1c-6.9.8-13.8 1.2-20.8 1.2q-7.3 0-14.7-.5c-7.8-.5-15.6-1.7-23.3-3.3-7.3-1.5-14.5-3.7-21.6-6-10.6-3.4-20.8-8.1-30.3-13.8-9.9 1-20 .8-29.8-.1-14.9-1.4-29.3-4.8-44-7.5q-2.6-.5-5.2-.9c-8.5-1.4-16.9-2.3-25.4-2.6-4-.1-8-.1-12 .3q-4.2.5-8.3 1.4-2.8.8-5.5 1.8-2.9 1.2-5.7 2.7c-1.8 1-3.5 2.1-5.2 3.2q-2.6 2-5 4.2-2.9 2.9-5.6 6.1-2.5 3.2-4.7 6.7-2.5 4.1-4.6 8.5c-1.8 4.2-3.5 8.5-4.9 12.9q-1.5 5.2-2.4 10.5-.7 5.1-.9 10.2c-.1 5.8.3 11.6.9 17.4.6 5.2 1.6 10.4 2.9 15.5q1.6 6.5 4 12.8 2.4 6.2 5.6 12.2.5 1 1.2 2 .8.1 1.6.5c3.2 1.3 5.1 4.5 6.5 7.5 1.7 3.5 2.6 7.4 3.4 11.2 2.1 9.3 2.3 18.9 3.2 28.4q0 .5.1 1 0-.3-.1-.5c.6 5.4 1.4 10.7 2.6 16l.4 1.4c1.4 5.6 3.2 11.1 5.2 16.6 2.9 7.3 6.4 14.3 10.1 21.3 5.1 9.1 10.7 17.9 16.8 26.4 5.2 7.2 10.8 14.1 16.8 20.6l-.3-.3.4.4.1.1c6.4 6.7 13.2 13.1 20.3 19.1 4.9 2 9.7 3.7 14.7 5.3q5.3 1.6 10.6 2.7 3.8-8 8.4-15.7c7.6-12.6 16.9-24.2 28.3-33.7 5.8-4.8 12.1-9 18.9-12.2q2.2-1 4.3-2 .8-.5 1.7-1.1c4.2-2.9 8.6-5.4 13.4-7.1 5.2-1.8 10.6-2.7 16-3.1 6.4-.4 12.7-.2 19.1.5 7.9.8 15.9 2.3 23.5 5 4 1.4 8 3.1 11.8 5 3.6 1.9 7 4.1 10.3 6.4 6.6 4.7 12.7 10.1 17.7 16.5 4.1-2 8.3-3.5 12.5-4.9 6.9-2.3 14.1-3.8 21.3-4.4 7.3-.5 14.6.1 21.7 1.6 7.7 1.6 15.2 4.1 22.4 7.2q1.8.8 3.6 1.7 4.2 1.1 8.3 2.3 11.6 3.5 22.6 8.6c3.3 1.6 6.6 3.3 9.7 5.2q5.6 2.2 11 4.8c6 2.8 11.8 6.2 17 10.3 5.7 4.4 11 9.5 15.4 15.3 4.5 6 7.9 12.4 10.5 19.4 1.1 3.1 1.8 6.4 2.4 9.6.7 3.4 1.2 6.8 1.6 10.2zM760 190.6q0 .1.1.1-.1 0-.1-.1zm3.4-14.1h-.1.1zm394.5 516.4-1.8-2c-4.8-5.1-9.8-10-15.2-14.6-3.8-3.1-7.8-6-12-8.7-4.5-2.7-9.1-5.1-13.9-7.3-5.2-2.4-10.6-4.3-16.1-5.9-8.5-2.6-17.1-4.9-25.8-6.4-9.3-1.5-18.7-2.5-28.1-2.8-7.3-.2-14.5.2-21.7.9-7.8.9-15.4 2.3-23 4.2q-10.9 2.7-21.5 6.8c-6.8 2.7-13.4 5.7-19.9 9.1q.1 0 .2-.1c-5.1 2.9-10 5.9-14.9 9.1 4.2 2.3 8.3 4.5 12.6 6.5 16.8 7.6 34.2 13.8 51.9 19.3h.2c10.7 3.3 21.4 6.1 32.4 8q14.1 2.1 28.4 2.7c12.8.3 25.6-.1 38.4-1.3h-.3.4q.1-.1.2-.1h.4c5.8-.7 11.5-1.5 17.2-2.9 3.4-.8 6.7-1.9 10-3.1 4.7-1.9 9.3-4 13.7-6.4 2.8-1.6 5.6-3.3 8.2-5z"/><path class="s0" d="M797.1 589q-6.5-.7-13-2.1c-4.9-1-9.9-2.2-14.7-3.8q-6.7-2.3-13.1-5.2c-7.9-3.5-15.6-7.8-22.7-12.7-3.4-2.3-6.6-4.7-9.7-7.3q-2-1.7-3.9-3.4c-.6-.6-1.3-1.2-1.8-1.9-1.7-2.1-1.2-5.2.9-6.8 2-1.5 4.8-1.2 6.5.6q0-.1-.1-.2c1 1.1 2.1 2.1 3.2 3.1q-.2-.2-.5-.4c3.7 3.2 7.6 6.1 11.7 8.9l-.2-.2c5 3.4 10.3 6.4 15.6 9.1l-.2-.2c5.5 2.8 11.1 5.1 16.8 7.2 4.5 1.5 9.1 2.6 13.7 3.6q-.2 0-.4-.1c5.2 1.1 10.4 1.9 15.7 2.4q-.3-.1-.6-.1c3 .3 6 .2 9 .1 2.7 0 4.8 2.4 4.8 5 0 2.7-2.3 4.7-4.9 4.7q-1.7.1-3.3.1-4.4 0-8.8-.4z"/><path class="s0" d="M771.3 624.8c-2.4-.8-4.8-1.6-7.1-2.8q.3.2.6.3c-1.9-.9-3.6-1.9-5.3-3.1-1.9-1.2-3.8-2.5-5.5-4.1-1.7-1.6-3.3-3.3-4.7-5.1-1.3-1.6-2.3-3.5-3.3-5.3h.1q-.1 0-.1-.1l-.2-.4v.1q-1.2-2.6-2.1-5.4v.2q0-.2-.1-.3-.1-.2-.1-.4 0 .1.1.2c-1.9-5.8-2.9-11.9-2.3-18 .2-2.7.6-5.5 1.4-8.1.4-1.4.9-2.7 1.6-4v.1q.1-.1.1-.2-.1.1-.1.2.1-.2.2-.3 0-.1.1-.2c1.6-2.2 4.8-2.5 6.9-.9 1.9 1.5 2.4 4.3 1.1 6.4l.1-.1-.1.1q.1 0 .1-.1l-.1.1v.1l-.4.8q-.3 1-.5 2.1-.5 2.7-.8 5.4v3.4-.1c.1 1.6.2 3.3.5 4.9q.6 2.9 1.5 5.6-.1 0-.1-.1 0 .1.1.2v.1-.1c.5 1.5 1.1 2.9 1.7 4.3q.2.3.3.6l-.2-.6q.7 1.5 1.6 3l1.6 2q1.6 1.7 3.3 3.3 1 .9 2.1 1.6c1.6 1.1 3.3 2.2 5.1 3.2q-.1-.1-.2-.1.1 0 .2.1l.4.2q-.1-.1-.2-.1.3.2.7.3-.3-.1-.6-.3 1.7.8 3.4 1.4h-.1q.1 0 .2.1.2 0 .4.1-.2-.1-.4-.1.9.3 1.7.5c2.5.9 4.1 3.4 3.4 6-.6 2.1-2.6 3.6-4.7 3.6q-.7 0-1.3-.2z"/><path class="s6" d="M1445.1 1295.7q-9.6-2.2-19-5.6c-6.1-2.1-12.2-4.5-18.1-7.5l-.4-.2-.8-.4c-7.9-4-15.5-9.2-22.5-15.2a95.82 95.82 0 0 1-19-22.3c-5.4-8.8-8.6-19.3-11-29.9-2.3-10.1-3.6-20.5-4.6-30.8q-.1-1-.2-1.9c-.5-.9-.8-2-.8-3.1q.1-.3 0-.6v-.2.1c0-4-.4-7.9-.6-11.8l-.4-9c-.5-10.2-.8-20.3-.9-30.5v-.8.2-2.1c-.2-10.6-.2-21.2-.1-31.8.1-10.4.4-20.8.8-31.3.5-9.5 1-19.1 1.6-28.7q0-.9-.1-1.8.6-11 1.3-21.9 1.4-19.2 3.4-38.2c1.8-18 4-36 6.6-53.9q1.4-6 3.1-12c2.1-7.9 4.5-15.7 7.8-22.9 1.8-3.8 3.9-7.5 6.7-10.3 2.5-2.5 5.5-3.8 8.7-4.6 3.2-.8 6.4-1.3 9.7-2 7.8-1.7 15.7-3.6 23.6-5q8.1-1.5 16.2-2.5c5.9-.7 11.8-1.5 17.7-2 6.5-.6 13-.9 19.6-1 13.5-.3 27 .4 40.6 1.4 13.2 1 26.5 2.4 39.8 3.7 15 1.4 30.1 2.1 45.1 3.2 15.1 1.2 30.2 2.9 45.2 4.6 6.9.8 13.8 1.7 20.7 2.5 4.9.6 9.8 1 14.7 1.4q7.3.1 14.6.3 26.1.6 52.3 2c36.3 1.8 72.6 4.2 108.9 6.4 35.2 2.2 70.4 4.5 105.7 6.2 16.1.8 32.3 1.5 48.4 2.2 17.1.8 34.1 1.6 51.2 2.9q6 .4 12 1c4.5.5 9 1 13.4 1.7q6.9 1.1 13.6 2.8c4.5 1.1 8.9 2.4 13.3 3.9 8.6 3.2 17 7.4 24.6 12.5 6.9 4.7 13.1 10.1 18.8 16.1 5.6 5.9 10.2 12.6 14.4 19.4 4.2 6.8 7.8 13.9 11 21.1 3 7.1 5.9 14.1 8.1 21.4 2.3 7.1 4.2 14.3 5.8 21.6 1.5 7.3 2.9 14.6 3.9 22 1 7.3 1.8 14.8 2.4 22.2.6 7.7.9 15.3 1.2 22.9.3 7.4.4 14.8.4 22.2 0 14.8-.9 29.4-1.9 44.1-1.2 16.1-2.7 32.1-4.4 48.1q-.8 8.1-1.8 16.1-.2 2.2-.6 4.3c.1 5.7.2 11.4-.1 17.1-.2 5.4-.7 10.8-1.4 16.1-1 7-2.3 14-4.1 20.8-1.6 5.7-3.9 11.1-6.8 15.9-1.6 2.7-3.4 5.3-5.3 7.6-2.5 3-5.4 5.6-8.3 8-1.5 1.2-2.9 2.4-4.5 3.4-1.5 1-3.1 1.7-4.8 2.5-3.5 1.5-7.2 2.6-11 3.5-7.5 1.9-15.2 3-22.8 4-6 .8-12.1 1.3-18.1 1.8-6 .4-12 1-18.1 1.4h-.3c-14 .9-28 1.4-42 2.3q-3.8.2-7.6.5-1.1 0-2.2.1c-7.1.5-14.2.9-21.3 1.1q-1.7.1-3.4.1c-13.3 1.6-26.8 2.9-40.2 3.9-17.5 1.3-35 2.3-52.6 3-17.9.7-35.9.7-53.9.6q-26.3-.2-52.7-.9c-34.8-1.1-69.6-3.2-104.4-6.1q-29.7-2.5-59.3-5.8-21.2-2.3-42.4-5.1-20.4-2.7-40.8-6.1-6.4.1-12.7.1c-17.8.2-35.5-.1-53.3-1.2-7.7-.5-15.5-1.1-23.2-2-10.7-1.2-21.4-2.8-32.1-5.3z"/><path class="s3" d="M1400.3 978c-2-2.3-3.3-5.6-3.4-9-.3-6.7 4.1-13.7 9.7-13.7h4.9-1.4 5.9q-.2 0-.5.1 1.1-.1 2.2 0-.7 0-1.4-.1c9.9.1 19.8.1 29.6.1h-.2c40 .2 79.9 2.4 119.8 3.9 41.1 1.5 82.2 2.5 123.3 3.8l27.2.8c5.6.2 9.9 7 9.6 13.8-.4 7.3-5.4 12.2-11.1 12-41.6-1.2-83.3-2.3-124.9-3.7-40.1-1.3-80.1-3.4-120.2-4.4q-12-.3-24.1-.3h.3-1.2c-9.5-.1-19 0-28.6-.1h.5-9.1q-.4 0-.7-.1c-2.3-.2-4.4-1.2-6.2-3.1zM1784.7 986.7c-4.6-4.1-6-12-2.8-18 2.2-4.1 6.3-6.3 10.2-5.6 1.1.1 2.3 0 3.5 0l14.6.2c12.3.2 24.6.6 36.9.9 5.7.2 10 7 9.7 13.8-.5 7.3-5.5 12.2-11.1 12.1-13-.4-26.1-.8-39.2-1l-13.6-.2h-2.3q-.5-.1-1-.1c-1.7-.2-3.3-.7-4.9-2.1zM1916.8 990.2c-1.4-.1-2.8-.5-4.1-1.3-3.3-2.3-5.5-6.1-5.7-10.8-.3-5.1 2.1-10.4 5.9-12.5 2.6-1.5 5.5-1.3 8.4-1.2q.8.1 1.5.1c4.3.2 8.7.5 13 .8 10 .8 19.9 1.4 29.9 2.1 20.7 1.4 41.4 3.1 62 4.8 34.8 2.8 69.5 6 104.2 8.9 5.7.5 10 6.8 9.6 13.8-.3 6.9-5.2 12.4-10.7 12.1h-.3c-40.3-3.5-80.6-7.1-120.9-10.3-17.3-1.4-34.7-2.7-52.1-3.9q-11.9-.8-23.9-1.7c-5.3-.4-10.6-.8-16-.9h-.9.1zM1391.5 1048.8c-3.1-5.9-1.7-14.1 3.1-17.9 3.7-3.1 8.8-2.7 13.1-3 8.5-.6 17.1-.3 25.6 0 19 .7 37.9 1.6 56.8 2.6 15.2.8 30.4 1.6 45.6 2.1 5.7.2 10 7 9.6 13.8-.4 7.3-5.4 12.3-11 12-19.5-.7-39.1-1.7-58.6-2.7-18.6-1-37.2-2-55.7-2.3h-1.7.1c-5.2 0-10.4.2-15.5.9q-.4 0-.7.1.2 0 .4-.1h-.1q-1.3.4-2.7.3h-.5c-3.1-.4-6-2.4-7.8-5.8zM1599.2 1053.1c-.3-7.3 4.1-13 9.7-13.7 2.9-.4 5.9-.3 8.7-.4q9.3-.3 18.5-.4c5.6 0 10.6 4.9 10.9 12.2.3 6.7-4.1 13.6-9.7 13.7q-9.2.1-18.4.3c-2.9.1-5.9 0-8.7.4q-.7.1-1.3.1h-.4c-4.9-.6-9-6.1-9.3-12.2zM1694.8 1058.8c-3.7-5.4-3.1-13.6 1.2-18.3 2.7-3 6-3.2 9.4-3.2 4.4 0 8.8.2 13.3.4 9.6.3 19.3 1 29 1.6 19.5 1.4 39 3.2 58.6 5.1 32.2 3 64.4 5.5 96.6 7.9 5.7.5 10 6.9 9.7 13.8-.4 7-5.3 12.4-10.9 12.1h-.2c-20.3-1.5-40.7-3-61-4.8-19.7-1.6-39.3-3.6-59-5.4q-19.7-1.8-39.3-3.1c-11.7-.8-23.3-1.5-35-1.7h.1c-1.3 0-2.6-.1-3.9.1q.1 0 .2-.1-.9.1-1.8 0c-2.6-.3-5.2-1.8-7-4.4zM1707.2 1063.2h-1.2 1.2zM1936.2 1064.5c.4-7 5.4-12.6 11-12 14.2 1.3 28.5 1.8 42.7 2.7 19.3 1.3 38.6 2.9 57.9 4.6 30 2.6 60 5.5 90 8.4q2.1.1 4.2.3c5.7.5 10 6.8 9.7 13.8-.4 6.9-5.3 12.4-10.8 12.1h-.3c-28.5-2.5-56.9-5.4-85.4-8-19.4-1.7-38.8-3.4-58.2-4.8-16.5-1.1-32.9-1.7-49.4-3.1l-1.8-.2h-.1c-5.6-.6-9.9-6.8-9.5-13.8zM1392.8 1121.6c-2.5-1.5-4.4-4.4-5.2-7.7-1-3.8-.5-8.2 1.3-11.4 1.7-2.9 4-4.6 6.7-5.4 1.1-.2 2.1-.2 3.2-.2h5.5q4 0 7.9.1.6-.1 1.2 0c6.6.1 13.3.3 19.9.7 19.5 1.3 39 3.5 58.5 3.9h-.3 1.4-.3c17.8.2 35.5.1 53.2.9 18.4.7 36.7 1.3 55.1 1.8l13.6.2c5.7.1 10 7.2 9.6 13.9-.3 3.5-1.6 6.8-3.7 9-2.2 2.3-4.7 3-7.5 3-15.6-.3-31.2-.7-46.8-1.3-14.6-.5-29.1-1.2-43.7-1.4-17.6-.2-35.1.1-52.6-1.2q-13.3-1-26.6-2.1c-9.4-.7-18.8-1.3-28.3-1.5-.9-.1-1.9 0-2.9-.1h-3.7q-3.1 0-6.1-.1h-2.6q-1.5.4-3.1.2-1.9-.2-3.7-1.3zM1652.1 1134.4c-4.7-7-2.1-17.9 4.8-20.7 2.2-.9 4.8-.6 7.1-.6q3 .1 5.9.2c5.8.2 11.7.5 17.5.8 18.2.8 36.4 1.2 54.6 2.2 38.6 2.3 77.1 5.1 115.7 7.5 37.1 2.4 74.2 5.1 111.3 7.5 5.7.3 10 7 9.6 13.9-.5 7.1-5.5 12.3-11.1 11.9-41.3-2.6-82.6-5.6-123.9-8.2-38.2-2.4-76.3-5.4-114.5-7.3-14.2-.7-28.5-1-42.7-1.7-8.1-.3-16.1-.8-24.2-.9h.1q-.9-.1-1.7 0 .2 0 .5-.1-1 .2-2 0c-2.6-.2-5.2-1.8-7-4.5zM2021.2 1165.6c-5.5-.6-9.7-7-9.3-13.9.4-7 5.5-12.4 11.1-11.9 10.5.9 21 1.6 31.5 2.4 13.9 1.1 27.8 2.4 41.6 3.5 11.9 1 23.8 1.8 35.8 2.1 5.6.2 9.9 7.2 9.5 13.9-.4 7.3-5.5 12.1-11.1 11.9-19.9-.5-39.7-2.4-59.5-4.1-16.4-1.4-32.9-2.4-49.4-3.9h-.2zM1413.5 1199.8q-8.5-1.3-16.9-3c-2.8-.5-5.6-1.3-8.5-1.8h-.3l-.1-.1c-5.6-.6-10-6.8-9.5-13.9.4-6.9 5.5-12.5 11.1-11.9h-.9c2.1.1 4.1.6 6.1 1q6.4 1.4 12.7 2.6h-.1q.2 0 .4.1h.2c18.7 3.3 37.6 5.1 56.3 6.9 18.1 1.7 36.1 3.2 54.1 4.6 14.8 1.1 29.7 2.1 44.5 3.1 5.6.4 9.9 7 9.5 13.9-.4 7.2-5.5 12.3-11.1 11.9-37.4-2.5-74.7-5.2-112-9q-5.9-.6-11.7-1.2c-8-.9-15.9-1.9-23.8-3.2zM1599.6 1200.2c.4-7 5.5-12.6 11.1-12h.1c35.7.5 71.3 3.2 106.9 5.5 27.9 1.7 55.8 2.7 83.7 4 5.7.2 9.9 7.1 9.5 13.9-.4 7.2-5.4 12.2-11.1 11.9-19.3-.9-38.7-1.7-58.1-2.6-19.9-.9-39.7-2.3-59.6-3.6-23.5-1.6-47-2.8-70.5-3.2-.8 0-1.7.1-2.5 0-5.6-.7-10-6.8-9.5-13.9zM1848.2 1229.6c-1.3-.2-2.5-.4-3.7-.9-4.4-1.6-7.3-7.7-7-13.2.5-7 5.5-12.4 11.2-11.9q.5 0 1.1.2c2.5.3 5.1.3 7.6.5q7 .4 13.9.7l28.8 1.2c21.6.8 43.1 1.6 64.7 2.6 20.5.9 41 1.9 61.5 2.6 20.3.7 40.6 1.2 60.8 1.9 15.8.5 31.5.9 47.3 1.4 5.6.2 9.9 7.2 9.5 14-.5 7.3-5.5 12.1-11.1 11.9-34.3-1.1-68.6-2.1-102.8-3.2-20.9-.7-41.8-1.7-62.7-2.6-21.3-.9-42.6-1.7-63.9-2.6-12.6-.5-25.3-1-37.9-1.6-5.5-.2-10.9-.5-16.4-.9q-.4-.1-.9-.1z"/><path class="s0" d="M1764.8 1506.4c16.7-23.8 33.5-47.5 50.2-71.2 17.1-24.3 34.1-48.7 51.4-72.8 13-18.2 26.1-36.2 39.5-54l.2-.4.1-.1c.5-.7 1-1.5 1.6-2.1q.3-.5.7-1l2.6-3.4q-.2.3-.4.5.2-.2.3-.4 1.1-1.5 2.3-3c.1-.2.2-.4.4-.6q0-.1.1-.1 2.4-3.3 4.9-6.6l2.8-3.8c1.8-2.3 3.5-4.7 5.3-7.1q.1 0 .1-.2h.1c.4-.6.9-1.2 1.3-1.8q.4-.4.7-.9.9-1.3 1.9-2.6.2-.2.3-.4.1-.2.3-.3v-.1l.2-.2q0-.1.2-.3 1-1.4 2.1-2.8.1-.1.1-.2.1 0 .1-.1.5-.7 1-1.3.2-.3.4-.5l.4-.6q.3-.4.5-.7.2-.2.4-.5 1.1-1.5 2.3-3.1c16.9-22.7 33.9-45.3 50.3-68.3 16.3-22.8 32.1-45.9 48.2-68.7 15.4-21.7 30.8-43.4 45.8-65.2 8-11.6 15.5-23.3 23.1-35 1-1.5 2.6-2.3 4.3-2.2-.1-1.2.3-2.5 1.1-3.5q.1-.1.1-.2c.9-.9 1.9-1.4 3.2-1.7 1.6-.4 3.3-.4 5-.6q8.6-.9 17.2-1.7c12.6-1.2 25.2-2.2 37.8-3 25.9-1.4 51.8-1.6 77.7-1.2 25.4.4 50.9 1.6 76.3 2.1 25.7.6 51.3.6 77 .4 15.3-.2 30.6-.4 45.9-.7h1.7q1 0 2-.1h2.8q.8 0 1.6-.1h4q.3-.1.7 0h.2q.3-.1.5-.1h2.2-.3H2468.9h-.1q1.4-.1 2.9-.1h-.1q4.7-.1 9.3-.2h.8-.1 1.7q.9-.1 1.9-.1h-.1q7.1-.1 14.2-.3h2.8q.9-.1 1.8-.1h2.6-.6q1.7-.1 3.5-.1c.6 0 1.3-.1 2 0h1.2q.8 0 1.7-.1h2.8c25.3-.5 50.6-.9 76-1.4q7.6-.1 15.3-.3 4.3-.1 8.6-.1h.9q.5-.1 1-.1 2.2 0 4.4-.1 8.2-.1 16.3-.3h-.1c11-.2 22.1-.4 33.1-.4 12.4 0 24.8.2 37.1.5 15.6.5 31.2 1.1 46.8 1.6 2.6.1 4.7 2.5 4.6 5.1-.1 2.7-2.4 4.7-5.1 4.6h-.7c1.2 1.6 1.3 3.8.2 5.6-12 19.3-25.2 37.9-38.3 56.5-14.7 21-29.7 41.7-44.5 62.6-7.7 11-15.3 22-22.8 33.1-6.8 10.3-13.6 20.5-20.5 30.7-14.1 20.8-28.4 41.5-42.9 62q-10.3 14.4-20.3 28.8c-8 11.6-15.8 23.3-23.7 35-7.4 10.8-14.7 21.6-22.1 32.3-7.6 10.8-15.3 21.7-22.9 32.5-7.7 10.8-15.2 21.7-22.7 32.6-7.3 10.5-14.3 21.2-21.4 31.8-7.5 11.1-14.9 22.3-22.5 33.3q0 .1-.1.2-.3-4.8-1.2-9.6c-4.7-26.6-22.7-52.5-47.7-63.9-14.9-6.9-30.4-10.7-46.9-9.4-7.3.5-14.5 1.5-21.6 3.3-9.1 2.2-18.1 4.4-27.1 6.7-10.4 2.8-20.7 5.9-31 8.9-16.2 4.8-32.3 9.8-48.4 15-15.6 4.4-31.1 9.5-46.7 14-21.7 4.7-43.6 8.7-65.3 13.3-22.8 4.9-45.7 10-68.4 15.4-51.1 12.3-101.7 26-152.5 39.5-50 13.4-100 26.5-149.7 41.1q-3.9 1.1-7.8 2.3 23.9-34.8 48.3-69.2z"/></g></g></svg>